<svg width="479" height="143" fill="none" xmlns="http://www.w3.org/2000/svg"><g clip-path="url(#a)"><path d="m19.421 80.046 1.493 1.695a.522.522 0 0 1 .135.343v3.968a1.918 1.918 0 0 0 1.029 1.706 1.932 1.932 0 0 0 1.993-.118l4.125-2.814a9.772 9.772 0 0 1 2.46-1.218l1.375-.45a.644.644 0 0 1 .832.603v.397a.621.621 0 0 1-.506.614 2.716 2.716 0 0 0-1.439.811L19.901 97.48a.905.905 0 0 1-1.565-.505 63.406 63.406 0 0 1 .172-16.659.514.514 0 0 1 .665-.438c.098.03.184.088.248.168ZM30.023 37.673c.944 0 1.71-.763 1.71-1.704 0-.942-.766-1.705-1.71-1.705s-1.71.763-1.71 1.705c0 .941.766 1.704 1.71 1.704Z" fill="#fff"/><path d="M36.852 7.702v6.224a10.85 10.85 0 0 1-1.203 4.96L33.523 23a22.224 22.224 0 0 0-2.469 10.2v.172a2.848 2.848 0 0 0-3.012.622h-.254a2.23 2.23 0 0 1-2.098-1.524l-1.004-3.012a5.756 5.756 0 0 1 .416-4.618l9.77-17.624a1.057 1.057 0 0 1 1.176-.508 1.059 1.059 0 0 1 .804.995ZM7.897 68.808a4.949 4.949 0 0 1 2.288-4.185l.073-.081-8.295-10.643A1.095 1.095 0 0 0 0 54.61L.46 67.238c.036 1.08.25 2.147.633 3.157a10.05 10.05 0 0 0 1.62 2.823c1.47 1.8 2.36 4 2.55 6.313A43.892 43.892 0 0 0 7.599 91.32a.46.46 0 0 0 .836.165.459.459 0 0 0 .069-.346 60.843 60.843 0 0 1 1.81-18.146 4.995 4.995 0 0 1-2.416-4.185Zm29.399 7.134.27-1.01a1.16 1.16 0 0 0-.596-1.344l-3.98-2.03a.346.346 0 0 0-.48.199.313.313 0 0 0 0 .27c.28.56.423 1.179.416 1.804v.127a1.133 1.133 0 0 0 .435.956l2.044 1.632a1.177 1.177 0 0 0 1.89-.604Zm-1.72 4.528.272-.424a1.178 1.178 0 0 0-.298-1.579l-2.506-1.804a1.17 1.17 0 0 0-1.447.064 1.163 1.163 0 0 0-.272 1.452l.2.37c.063.115.145.219.244.306l2.035 1.804a1.176 1.176 0 0 0 1.773-.19Zm-5.182-1.29a1.187 1.187 0 0 0-1.62 0l-.434.397a1.163 1.163 0 0 0 0 1.695l1.022 1.028a1.205 1.205 0 0 0 1.15.307l.66-.19a1.167 1.167 0 0 0 .843-.85 1.16 1.16 0 0 0-.355-1.143l-1.266-1.244Zm-4.876 2.2h-1.719a1.178 1.178 0 0 0-1.185 1.182v2.976a.702.702 0 0 0 .7.694c.123 0 .243-.03.35-.09l3.22-1.848a1.174 1.174 0 0 0 .506-1.444 1.171 1.171 0 0 0-.316-.45l-.805-.722a1.16 1.16 0 0 0-.751-.297Zm3.211-30.737-1.149 2.381a10.132 10.132 0 0 0-1.022 4.356V58.5a8.694 8.694 0 0 0 1.665 5.186l3.718 5.105a.398.398 0 0 0 .135.108l5.247 2.453a.344.344 0 0 0 .488-.325l-.18-5.673a.414.414 0 0 0-.082-.207l-2-2.363c.136.332.204.688.2 1.046a2.761 2.761 0 0 1-.814 1.967 2.777 2.777 0 0 1-1.972.811c-2.19 0-3.79-2.525-2.045-4.807l.09-.09a3.309 3.309 0 0 1 2.326-.64.345.345 0 0 0 .372-.386.342.342 0 0 0-.083-.183l-.271-.325a.19.19 0 0 1-.055-.09l-3.935-9.425a.343.343 0 0 0-.502-.167.343.343 0 0 0-.13.149Zm7.336-7.288a31.509 31.509 0 0 1-2.777-1.867.996.996 0 0 0-1.537.253l-.145.261a7.2 7.2 0 0 0-.905 3.202l-.145 3.5a.27.27 0 0 0 0 .144l2.217 5.267a.343.343 0 0 0 .506.152c.056-.037.1-.09.127-.152a2.789 2.789 0 0 1 2.578-1.722c.204 0 .407.025.606.072l-.434-.632a.397.397 0 0 1-.054-.144c.124-2.256.363-4.505.714-6.737a1.637 1.637 0 0 0-.75-1.597Zm-1.112 15.983 2.424 3.03a.344.344 0 0 0 .615-.19l.253-4.51a.333.333 0 0 0-.376-.347.335.335 0 0 0-.175.077 2.791 2.791 0 0 1-2.778.361.345.345 0 0 0-.474.25.342.342 0 0 0 .022.201l.444 1.064a.233.233 0 0 0 .045.063ZM19.982 44.77a.342.342 0 0 0 .424.208.344.344 0 0 0 .146-.09 2.808 2.808 0 0 1 1.98-.821 2.847 2.847 0 0 1 2.508 1.57 2.825 2.825 0 0 1-.255 2.94l-.063.08a3.023 3.023 0 0 1-2.506.903.355.355 0 0 0-.383.287.35.35 0 0 0 .012.173l2.497 7.125a.353.353 0 0 0 .678-.117c.003-1.642.4-3.26 1.158-4.718l1.33-2.534a4.256 4.256 0 0 0 .09-3.716l-1.953-4.266a11.352 11.352 0 0 1-.842-6.828v-.117a.395.395 0 0 0 0-.18l-2.189-6.54a.901.901 0 0 0-.882-.7.906.906 0 0 0-.882.7l-1.71 4.51a13.555 13.555 0 0 0-.144 9.29l.986 2.841Z" fill="#fff"/><path d="m12.33 63.469.38.315h.144c1.217 0 2.392.444 3.304 1.248a4.965 4.965 0 0 1 1.644 3.118l.063.054 7.346 3.662a.336.336 0 0 0 .443-.127v-.054a.342.342 0 0 0 0-.406l-9.652-11.003a.326.326 0 0 0-.163-.108 2.764 2.764 0 0 1-1.99-2.66c.002-.309.058-.614.163-.903a.445.445 0 0 0 0-.108v-12.41a.342.342 0 0 1 .519-.303c.07.042.124.107.15.185l.244.64a.45.45 0 0 1 0 .118v9.92a.342.342 0 0 0 .498.308 2.793 2.793 0 0 1 3.754 1.2 2.773 2.773 0 0 1-1.203 3.742.343.343 0 0 0-.1.532l8.793 9.921a.344.344 0 0 0 .47 0 3.934 3.934 0 0 1 4.053.136l.045-.118-3.193-4.184a35.251 35.251 0 0 1-5.066-9.263L16.11 38.134a.194.194 0 0 0 0-.072l-5.255-7.46a1.23 1.23 0 0 0-1.375-.46 1.23 1.23 0 0 0-.86 1.164v24.406a8.894 8.894 0 0 0 1.954 5.62l1.755 2.137ZM47.2 24.542l2.832-1.615a.631.631 0 0 0 .28-.351l2.009-6.774a.603.603 0 0 0-.558-.768.608.608 0 0 0-.347.092l-6.052 3.815a12.732 12.732 0 0 0-4.432 4.753l-1.61 3.04a5.634 5.634 0 0 0-.272 4.716l2.352 5.971a.603.603 0 0 0 .525.383.608.608 0 0 0 .57-.31l.434-.776a5.93 5.93 0 0 0 .724-2.823V32.19a.566.566 0 0 1 .081-.298l1.927-3.283a3.599 3.599 0 0 0 .47-2.029v-.117a2.087 2.087 0 0 1 1.068-1.921Zm-22.044 49.65c0-.126-.081-.234-.488-.414l-6.776-3.085a.345.345 0 0 0-.46.162c-.11.25-.243.489-.399.713a1.962 1.962 0 0 0 .154 2.39l5.274 5.998a.325.325 0 0 0 .235.117l2.967.208a.333.333 0 0 0 .253-.09l2.28-2.039a.343.343 0 0 0-.154-.586 3.919 3.919 0 0 1-1.97-1.239 3.899 3.899 0 0 1-.916-2.134Zm-1.348-25.948.09-.09a1.874 1.874 0 0 0-1.365-3.139c-.48 0-.94.19-1.28.529a1.8 1.8 0 0 0-.104 2.439 1.92 1.92 0 0 0 2.66.261Z" fill="#fff"/><path d="M18.02 56.226a.42.42 0 0 0-.091-.09 1.892 1.892 0 0 0-2.967.622 2.105 2.105 0 0 0 .452 2.264c.048.05.107.087.172.108.416.165.866.227 1.311.18a1.883 1.883 0 0 0 1.472-1.212 1.87 1.87 0 0 0-.35-1.872Zm19.258-2.417a1.902 1.902 0 0 0-3.257 1.307c-.005.502.19.986.543 1.345.02.036.047.067.081.09a1.922 1.922 0 0 0 3.276-1.353 1.91 1.91 0 0 0-.562-1.353.253.253 0 0 0-.081-.036Zm-3.04 8.64a1.902 1.902 0 0 0-3.23 1.373c.006.502.21.982.57 1.333l.091.081a1.902 1.902 0 0 0 3.23-1.372 1.891 1.891 0 0 0-.57-1.333.427.427 0 0 0-.09-.082Zm-3.591 9.335a2.582 2.582 0 0 0-2.858-.234c-.424.239-.772.592-1.005 1.019a.281.281 0 0 0-.045.09c-.175.35-.264.736-.262 1.128-.002.307.05.612.154.901a2.571 2.571 0 0 0 2.415 1.67 2.547 2.547 0 0 0 2.071-1.056 2.556 2.556 0 0 0-.47-3.5v-.018Zm-15.27-5.33-.09-.081c-3.528-2.589-7.435 1.271-4.84 4.789l.082.081c3.492 2.57 7.382-1.308 4.849-4.789ZM57.46 21.186l-8.72 4.068a1.436 1.436 0 0 0-.815 1.443 4.383 4.383 0 0 1-.714 2.895l-1.158 1.732a.37.37 0 0 0 .47.541l7.237-3.382a.335.335 0 0 0 .163-.153l3.98-6.647a.377.377 0 0 0-.243-.488.382.382 0 0 0-.2-.009Z" fill="#fff"/><path d="m68.431 6.8-11.443 6.783a.289.289 0 0 0-.127.126l-4.305 7.64a.35.35 0 0 0 .249.503.354.354 0 0 0 .212-.025l5.78-3.022a.345.345 0 0 1 .507.307v.667a.343.343 0 0 0 .515.298l6.215-3.5a1.454 1.454 0 0 0 .733-1.262v-1.588a.693.693 0 0 0-.693-.694.699.699 0 0 0-.348.09l-4.803 2.706a.345.345 0 0 1-.516-.298v-1.578a.36.36 0 0 1 .181-.298l6.577-3.734a.906.906 0 0 1 1.393.803v5.114a1.736 1.736 0 0 1-.815 1.47l-6.132 3.824a.35.35 0 0 0-.163.298v1.804a.342.342 0 0 0 .352.34.344.344 0 0 0 .172-.052l7.409-4.582a1.75 1.75 0 0 0 .814-1.479v-9.66a1.16 1.16 0 0 0-.59-1.012 1.17 1.17 0 0 0-1.174.012ZM14.763 91.095a57.028 57.028 0 0 1 1.465-12.88 3.803 3.803 0 0 0-.85-3.408l-.833-.902a1.33 1.33 0 0 0-1.121-.46 1.368 1.368 0 0 0-1.249 1.082 61.357 61.357 0 0 0 4.613 37.707 61.595 61.595 0 0 0 25.944 27.818 56.904 56.904 0 0 1-20.499-20.779 56.689 56.689 0 0 1-7.47-28.178Z" fill="#fff"/><path d="M20.389 106.427a.708.708 0 0 0 .605.53.717.717 0 0 0 .716-.367 146.428 146.428 0 0 1 4.405-7.622 157.79 157.79 0 0 1 6.92-10.29.756.756 0 0 0 .145-.46v-1.579a.468.468 0 0 0-.573-.462.47.47 0 0 0-.242.137c-2.089 2.12-4.242 4.51-6.422 7.071a122.524 122.524 0 0 0-5.075 6.476 5.572 5.572 0 0 0-.967 4.384c.144.73.316 1.452.488 2.182Zm3.193 9.065a.718.718 0 0 0 1.078.256.714.714 0 0 0 .243-.338 166.32 166.32 0 0 1 4.251-11.553 157.417 157.417 0 0 1 4.333-9.543c.106-.215.147-.456.118-.694-.082-.64-.145-1.29-.208-1.94a.406.406 0 0 0-.742-.189 152.855 152.855 0 0 0-5.87 10.138 151.083 151.083 0 0 0-4.162 8.478 3.824 3.824 0 0 0-.072 2.976c.326.812.67 1.615 1.031 2.409Zm4.46 7.792a.705.705 0 0 0 1.284-.279 157.31 157.31 0 0 1 2.57-12.222c.985-3.914 2.08-7.585 3.21-10.994a1.125 1.125 0 0 0-.063-.839 12.597 12.597 0 0 1-.66-1.74.388.388 0 0 0-.58-.179.388.388 0 0 0-.144.178 153.312 153.312 0 0 0-3.401 9.11 167.679 167.679 0 0 0-3.618 12.23 4.593 4.593 0 0 0 .588 3.608c.235.342.497.739.814 1.127Zm5.644 6.954a.715.715 0 0 0 1.221-.478c.109-4.059.39-8.442.905-13.087.56-4.834 1.275-9.344 2.18-13.502a.711.711 0 0 0-.262-.703 7.817 7.817 0 0 1-.832-.767l-.353-.37a.464.464 0 0 0-.778.199c-.905 3.535-1.81 7.332-2.533 11.391a152.345 152.345 0 0 0-1.81 12.852 4.01 4.01 0 0 0 1.014 3.085c.38.469.805.929 1.248 1.38Zm7.418-24.839a.817.817 0 0 0-.28-.713l-1.213-1.037a.544.544 0 0 0-.905.325 156.786 156.786 0 0 0-1.356 14.539 153.806 153.806 0 0 0-.055 13.042 4.714 4.714 0 0 0 1.81 3.553c.163.136.343.271.515.397a.71.71 0 0 0 .772.067.703.703 0 0 0 .368-.68 162.832 162.832 0 0 1-.507-14.061c.055-5.547.371-10.715.85-15.432Zm4.46 19.887a163.428 163.428 0 0 1-1.349-16.234l-1.492-2.625a.472.472 0 0 0-.818-.098.469.469 0 0 0-.087.315 165.128 165.128 0 0 0 .172 15.846c.29 4.934.787 9.552 1.402 13.818a4.185 4.185 0 0 0 2.072 3.048c.76.442 1.547.857 2.334 1.254a.307.307 0 0 0 .443-.343 168.81 168.81 0 0 1-2.678-14.981Zm8.891 14.819a148.295 148.295 0 0 1-3.618-11.788 160.4 160.4 0 0 1-2.85-12.537 255.679 255.679 0 0 0-2.116-3.842.306.306 0 0 0-.366-.154.31.31 0 0 0-.213.334c.488 4.51 1.212 9.407 2.252 14.575a162.3 162.3 0 0 0 3.772 15.072 1.141 1.141 0 0 0 .66.73l1.104.433a1.155 1.155 0 0 0 1.1-.162 1.154 1.154 0 0 0 .456-1.01l-.18-1.651Zm-3.59-19.851c-.426.135 3.69 15.504 4.17 15.396.289-.064-.498-5.674-2.506-11.365-.335-.947-1.466-4.094-1.665-4.031ZM29.171 45.196c.104-1.627.59-3.206 1.42-4.61a1.733 1.733 0 0 1 1.798-.767c.228.045.444.134.636.263l3.528 2.372c.087.082.188.15.298.198a1.108 1.108 0 0 0 1.203-.162L40 40.83a1.136 1.136 0 0 0 .326-1.235l-2.859-7.775a6.144 6.144 0 0 1 .326-4.97l1.81-3.481a17.85 17.85 0 0 1 5.716-6.449l3.456-2.363c.135-.09.247-.21.325-.351l7.445-12.537a1.124 1.124 0 0 0-.458-1.536A1.134 1.134 0 0 0 55.514 0c-.99.074-1.954.35-2.832.812L40.48 7.216a4.336 4.336 0 0 0-1.785 1.765 4.318 4.318 0 0 0-.504 2.456l.208 2.137a.504.504 0 0 0 .551.451.506.506 0 0 0 .245-.09l3.564-2.553a.616.616 0 0 1 .89.52.613.613 0 0 1-.112.382l-4.704 4.41a.965.965 0 0 0-.244.335l-4.65 9.813a9.404 9.404 0 0 0-.38.901c-.222.654-.38 1.327-.47 2.012-.12.712-.18 1.433-.18 2.155v2.436c0 .712-.055 1.29-.082 1.686a2.793 2.793 0 0 1-.912 1.862 2.809 2.809 0 0 1-3.86-.087 2.792 2.792 0 0 1-.827-1.901 1.278 1.278 0 0 0-1.276 1.235c0 2.418 1.23 5.62 2.533 8.118a.37.37 0 0 0 .687-.063Zm63.737-21.44-5.735 2.463a2.214 2.214 0 0 1-2.46-.496l-.96-1.001a1.077 1.077 0 0 0-.787-.334h-6.72a1.08 1.08 0 0 0-.787.334l-.96 1.001a2.209 2.209 0 0 1-2.46.496l-5.735-2.462a.723.723 0 0 1-.366-.994.723.723 0 0 1 .267-.287l4.215-2.588a4.814 4.814 0 0 1 2.533-.713H86.26a4.814 4.814 0 0 1 2.533.713l4.215 2.588a.723.723 0 0 1 .208 1.038.724.724 0 0 1-.307.243Zm-5.627-10.949v3.734a.63.63 0 0 1-.633.623H72.565a.627.627 0 0 1-.585-.382.621.621 0 0 1-.048-.24v-3.735a1.998 1.998 0 0 1 1.076-1.803l2.262-1.182a.362.362 0 0 1 .533.325v1.47a4.782 4.782 0 0 0 1.411 3.382 3.374 3.374 0 0 0 2.389 1.02 3.38 3.38 0 0 0 2.37-.984 4.782 4.782 0 0 0 1.41-3.382v-1.47a.36.36 0 0 1 .353-.368.363.363 0 0 1 .181.043l2.262 1.182a2.007 2.007 0 0 1 1.103 1.768Zm52.502 67.239-1.493 1.695a.524.524 0 0 0-.135.343v3.969a1.925 1.925 0 0 1-2.042 1.924 1.933 1.933 0 0 1-.98-.337l-4.124-2.814a9.777 9.777 0 0 0-2.461-1.217l-1.375-.451a.641.641 0 0 0-.832.604v.397a.63.63 0 0 0 .506.613c.555.116 1.06.4 1.448.812l11.008 11.896a.911.911 0 0 0 .946.248.907.907 0 0 0 .619-.753 63.035 63.035 0 0 0-.171-16.658.512.512 0 0 0-.367-.44.515.515 0 0 0-.547.169ZM129.182 37.673c.945 0 1.71-.763 1.71-1.704 0-.942-.765-1.705-1.71-1.705-.944 0-1.709.763-1.709 1.705 0 .941.765 1.704 1.709 1.704Z" fill="#fff"/><path d="M122.353 7.702v6.224c0 1.725.413 3.425 1.203 4.96L125.682 23a22.227 22.227 0 0 1 2.469 10.2v.172a2.795 2.795 0 0 1 1.031-.19c.745-.001 1.46.29 1.99.812h.245a2.22 2.22 0 0 0 2.098-1.524l1.004-3.012a5.76 5.76 0 0 0-.416-4.618l-9.769-17.624a1.062 1.062 0 0 0-1.177-.508 1.055 1.055 0 0 0-.804.995Zm28.955 61.106a4.968 4.968 0 0 0-2.288-4.185l-.073-.081 8.304-10.634a1.096 1.096 0 0 1 1.963.712l-.461 12.627a9.83 9.83 0 0 1-.633 3.157 10.046 10.046 0 0 1-1.601 2.796 11.479 11.479 0 0 0-2.56 6.313 43.577 43.577 0 0 1-2.334 11.789.46.46 0 0 1-.543.36.461.461 0 0 1-.362-.54 60.53 60.53 0 0 0-1.809-18.147 4.963 4.963 0 0 0 2.397-4.167Zm-29.399 7.134-.271-1.01a1.162 1.162 0 0 1 .606-1.344l3.971-2.03a.348.348 0 0 1 .406.064.341.341 0 0 1 .056.406 3.949 3.949 0 0 0-.417 1.803v.127a1.128 1.128 0 0 1-.434.956l-2.044 1.632a1.177 1.177 0 0 1-1.873-.604Zm1.719 4.528-.271-.424a1.179 1.179 0 0 1 .298-1.578l2.506-1.805a1.17 1.17 0 0 1 1.447.064 1.17 1.17 0 0 1 .281 1.452l-.199.37a1.353 1.353 0 0 1-.245.306l-2.044 1.804a1.169 1.169 0 0 1-.93.31 1.176 1.176 0 0 1-.843-.5Zm5.183-1.29a1.188 1.188 0 0 1 1.62 0l.434.397a1.162 1.162 0 0 1 .045 1.695l-1.022 1.028a1.195 1.195 0 0 1-1.149.307l-.66-.19a1.167 1.167 0 0 1-.83-.828 1.158 1.158 0 0 1 .314-1.128l1.248-1.281Zm4.876 2.2h1.719a1.178 1.178 0 0 1 1.176 1.182v2.976a.703.703 0 0 1-.701.694.708.708 0 0 1-.349-.09l-3.22-1.848a1.183 1.183 0 0 1-.502-1.443c.067-.172.174-.327.312-.451l.805-.722a1.16 1.16 0 0 1 .76-.297Zm-3.211-30.737 1.149 2.381a10.283 10.283 0 0 1 1.031 4.356V58.5a8.632 8.632 0 0 1-1.665 5.186l-3.717 5.105a.493.493 0 0 1-.127.108l-5.256 2.453a.342.342 0 0 1-.488-.325l.19-5.673a.346.346 0 0 1 .072-.207l1.999-2.363a2.882 2.882 0 0 0-.199 1.046 2.758 2.758 0 0 0 .814 1.967 2.771 2.771 0 0 0 1.972.811c2.19 0 3.791-2.525 2.045-4.807l-.091-.09a3.29 3.29 0 0 0-2.315-.64.345.345 0 0 1-.347-.182.341.341 0 0 1 .048-.387l.271-.325a.184.184 0 0 0 .055-.09l3.917-9.425a.338.338 0 0 1 .314-.23.344.344 0 0 1 .328.212Zm-7.336-7.288a31.568 31.568 0 0 0 2.777-1.867 1.008 1.008 0 0 1 1.547.253l.135.261a7.08 7.08 0 0 1 .905 3.202l.145 3.482a.437.437 0 0 1 0 .144l-2.217 5.285a.341.341 0 0 1-.506.152.343.343 0 0 1-.127-.152 2.787 2.787 0 0 0-3.184-1.65l.434-.632a.396.396 0 0 0 .055-.144 67.369 67.369 0 0 0-.715-6.737 1.638 1.638 0 0 1 .751-1.597Zm1.112 15.983-2.424 3.03a.343.343 0 0 1-.542.002.336.336 0 0 1-.073-.191l-.253-4.51a.328.328 0 0 1 .186-.316.337.337 0 0 1 .365.045 2.83 2.83 0 0 0 1.71.578 2.781 2.781 0 0 0 1.067-.253.348.348 0 0 1 .381.072.348.348 0 0 1 .072.379l-.443 1.064a.244.244 0 0 1-.046.1Zm14.971-14.567a.34.34 0 0 1-.252.216.346.346 0 0 1-.318-.098 2.78 2.78 0 0 0-1.981-.821 2.844 2.844 0 0 0-2.507 1.57 2.83 2.83 0 0 0 .255 2.94l.063.08a3.02 3.02 0 0 0 2.506.903.346.346 0 0 1 .317.124.341.341 0 0 1 .054.336l-2.497 7.125a.355.355 0 0 1-.386.212.353.353 0 0 1-.292-.33c-.003-1.641-.4-3.259-1.158-4.716l-1.321-2.535a4.221 4.221 0 0 1-.099-3.716l1.953-4.266a11.295 11.295 0 0 0 .842-6.828v-.117a.308.308 0 0 1 0-.18l2.243-6.566a.906.906 0 0 1 1.764 0l1.71 4.51a13.559 13.559 0 0 1 .108 9.29l-1.004 2.867Z" fill="#fff"/><path d="m146.885 63.469-.38.315h-.145a4.99 4.99 0 0 0-3.303 1.248 4.964 4.964 0 0 0-1.645 3.118l-.063.054-7.345 3.662a.336.336 0 0 1-.443-.127v-.054a.338.338 0 0 1 0-.406l9.688-11.048a.32.32 0 0 1 .162-.108 2.784 2.784 0 0 0 1.999-2.661 2.7 2.7 0 0 0-.171-.902.392.392 0 0 1 0-.108V44.086a.345.345 0 0 0-.67-.117l-.244.64a.46.46 0 0 0 0 .118v9.92a.346.346 0 0 1-.498.307 2.794 2.794 0 0 0-3.754 1.2 2.777 2.777 0 0 0 1.204 3.743.345.345 0 0 1 .173.396.34.34 0 0 1-.074.136l-8.792 9.921a.349.349 0 0 1-.4.086.345.345 0 0 1-.116-.086 3.935 3.935 0 0 0-4.053.136l-.045-.118 3.193-4.184a35.23 35.23 0 0 0 5.066-9.263l6.83-18.787a.511.511 0 0 1 .045-.072l5.246-7.46a1.232 1.232 0 0 1 2.235.704v24.406a8.898 8.898 0 0 1-1.954 5.62l-1.746 2.137Zm-34.881-38.927-2.831-1.615a.633.633 0 0 1-.28-.351l-2.008-6.774a.598.598 0 0 1 .219-.647.609.609 0 0 1 .685-.03l6.052 3.816a12.728 12.728 0 0 1 4.432 4.753l1.61 3.04a5.626 5.626 0 0 1 .272 4.716l-2.352 5.971a.605.605 0 0 1-.855.31.608.608 0 0 1-.24-.238l-1.085-1.957a.67.67 0 0 1-.073-.297V32.19a.568.568 0 0 0-.081-.298l-1.927-3.283a3.594 3.594 0 0 1-.497-2.029v-.117a2.124 2.124 0 0 0-1.041-1.921Zm22.045 49.65c0-.126.081-.234.488-.414l6.785-3.085a.344.344 0 0 1 .452.162c.109.25.243.489.398.713a1.96 1.96 0 0 1-.154 2.39l-5.273 5.998a.324.324 0 0 1-.236.117l-2.967.208a.334.334 0 0 1-.253-.09l-2.279-2.039a.347.347 0 0 1-.101-.34.343.343 0 0 1 .254-.246 3.92 3.92 0 0 0 1.97-1.239 3.9 3.9 0 0 0 .916-2.134Zm1.348-25.948a.428.428 0 0 1-.091-.09 1.87 1.87 0 0 1-.334-2.01 1.886 1.886 0 0 1 1.7-1.13c.48.001.94.191 1.28.53a1.801 1.801 0 0 1 .104 2.439 1.92 1.92 0 0 1-2.659.261Z" fill="#fff"/><path d="M141.186 56.226a.432.432 0 0 1 .091-.09 1.888 1.888 0 0 1 1.64-.431 1.89 1.89 0 0 1 1.327 1.053 2.101 2.101 0 0 1-.453 2.264.416.416 0 0 1-.172.108c-.413.164-.86.226-1.302.18a1.871 1.871 0 0 1-1.131-3.085Zm-19.258-2.417a1.89 1.89 0 0 1 1.337-.568 1.907 1.907 0 0 1 1.349.541 1.9 1.9 0 0 1 .57 1.334 1.883 1.883 0 0 1-.543 1.345l-.09.09a1.922 1.922 0 0 1-2.714 0 1.91 1.91 0 0 1 0-2.706.255.255 0 0 1 .091-.036Zm3.039 8.64a1.903 1.903 0 0 1 3.092.646 1.883 1.883 0 0 1-.014 1.45 1.9 1.9 0 0 1-.418.61l-.091.082a1.903 1.903 0 0 1-2.687-.027 1.894 1.894 0 0 1 .118-2.76Zm3.591 9.335a2.584 2.584 0 0 1 3.872.785v.09c.175.35.264.737.262 1.128.002.307-.05.612-.154.902a2.58 2.58 0 0 1-3.971 1.145 2.6 2.6 0 0 1-.515-.532 2.553 2.553 0 0 1 .47-3.5l.036-.018Zm15.324-5.33.081-.081c3.483-2.589 7.4 1.308 4.794 4.79a.653.653 0 0 1-.081.08c-3.492 2.57-7.381-1.307-4.794-4.789Zm-42.135-45.267 8.72 4.067a1.433 1.433 0 0 1 .814 1.443 4.383 4.383 0 0 0 .714 2.895l1.158 1.732a.365.365 0 0 1-.025.452.369.369 0 0 1-.445.09l-7.237-3.383a.336.336 0 0 1-.163-.153l-3.971-6.611a.38.38 0 0 1 .435-.532Z" fill="#fff"/><path d="m90.774 6.8 11.443 6.783a.32.32 0 0 1 .118.126l4.305 7.64a.349.349 0 0 1-.061.401.35.35 0 0 1-.4.077l-5.771-3.022a.346.346 0 0 0-.464.136.342.342 0 0 0-.043.17v.668a.342.342 0 0 1-.343.344.344.344 0 0 1-.172-.046l-6.215-3.5a1.454 1.454 0 0 1-.732-1.262v-1.588a.692.692 0 0 1 .699-.7c.123 0 .244.034.35.096l4.794 2.706a.345.345 0 0 0 .516-.298v-1.578a.37.37 0 0 0-.172-.298L92.04 9.921a.906.906 0 0 0-1.394.803v5.114a1.738 1.738 0 0 0 .815 1.47l6.133 3.824a.334.334 0 0 1 .162.298v1.804a.342.342 0 0 1-.352.34.345.345 0 0 1-.172-.052l-7.409-4.582a1.75 1.75 0 0 1-.814-1.479v-9.66a1.16 1.16 0 0 1 .59-1.012 1.17 1.17 0 0 1 1.174.012Zm53.669 84.294a57.034 57.034 0 0 0-1.466-12.88 3.84 3.84 0 0 1 .841-3.372l.833-.902a1.33 1.33 0 0 1 1.121-.46 1.365 1.365 0 0 1 1.249 1.082 61.36 61.36 0 0 1-4.613 37.707 61.59 61.59 0 0 1-25.944 27.818 56.893 56.893 0 0 0 20.513-20.793 56.696 56.696 0 0 0 7.466-28.2Z" fill="#fff"/><path d="M138.816 106.427a.71.71 0 0 1-.605.53.719.719 0 0 1-.716-.367 149.974 149.974 0 0 0-4.396-7.622 161.38 161.38 0 0 0-6.929-10.29.76.76 0 0 1-.145-.46v-1.579a.466.466 0 0 1 .296-.44.471.471 0 0 1 .519.115c2.089 2.12 4.251 4.51 6.422 7.071a118.334 118.334 0 0 1 5.075 6.476 5.565 5.565 0 0 1 .949 4.402c-.126.712-.298 1.434-.47 2.164Zm-3.193 9.065a.722.722 0 0 1-.282.305.721.721 0 0 1-.796-.049.716.716 0 0 1-.243-.338 166.51 166.51 0 0 0-4.251-11.553 157.601 157.601 0 0 0-4.333-9.543 1.234 1.234 0 0 1-.118-.694c.082-.64.154-1.29.208-1.94a.409.409 0 0 1 .751-.189 157.027 157.027 0 0 1 5.862 10.138 150.808 150.808 0 0 1 4.161 8.478c.213.466.329.969.342 1.481.012.511-.08 1.02-.27 1.495a55.698 55.698 0 0 1-1.031 2.409Zm-4.414 7.792a.71.71 0 0 1-.738.298.704.704 0 0 1-.547-.577 156.938 156.938 0 0 0-2.569-12.222 151.21 151.21 0 0 0-3.211-10.994 1.125 1.125 0 0 1 .063-.839c.263-.563.484-1.145.661-1.74a.386.386 0 0 1 .58-.178.381.381 0 0 1 .143.177c1.167 2.851 2.316 5.89 3.401 9.11a167.402 167.402 0 0 1 3.619 12.23 4.595 4.595 0 0 1-.588 3.608c-.281.342-.543.739-.814 1.127Zm-5.69 6.954a.716.716 0 0 1-1.221-.478 156.775 156.775 0 0 0-.905-13.087 159.034 159.034 0 0 0-2.126-13.529.716.716 0 0 1 .263-.703c.295-.235.573-.492.832-.767l.353-.37a.458.458 0 0 1 .778.199c.904 3.535 1.809 7.332 2.541 11.391.833 4.51 1.403 8.848 1.81 12.852a4.025 4.025 0 0 1-1.014 3.085c-.443.496-.868.956-1.311 1.407Zm-7.418-24.839a.815.815 0 0 1 .281-.713l1.212-1.037a.545.545 0 0 1 .904.325 156.405 156.405 0 0 1 1.357 14.539c.217 4.636.208 9.019.055 13.042a4.72 4.72 0 0 1-1.81 3.553c-.171.136-.343.271-.524.397a.709.709 0 0 1-1.058-.218.705.705 0 0 1-.082-.395c.344-4.338.543-9.019.507-14.061a166.202 166.202 0 0 0-.842-15.432Zm-4.459 19.887a163.462 163.462 0 0 0 1.348-16.234l1.501-2.589a.465.465 0 0 1 .905.217 165.057 165.057 0 0 1-1.574 29.664 4.184 4.184 0 0 1-2.072 3.049c-.76.441-1.537.856-2.333 1.253a.31.31 0 0 1-.435-.169.303.303 0 0 1-.009-.174 175.908 175.908 0 0 0 2.669-15.017Zm-8.892 14.819a148.257 148.257 0 0 0 3.618-11.788 164.034 164.034 0 0 0 2.84-12.537 260.357 260.357 0 0 1 2.117-3.842.306.306 0 0 1 .366-.154.307.307 0 0 1 .213.334 162.76 162.76 0 0 1-2.252 14.575 165.42 165.42 0 0 1-3.763 15.072 1.129 1.129 0 0 1-.67.73l-1.103.433a1.157 1.157 0 0 1-1.556-1.172 58.6 58.6 0 0 0 .19-1.651Zm4.794-22.187c.597.189-5.382 21.916-6.332 21.646-.443-.099.163-4.402.561-6.557a38.512 38.512 0 0 1 2.234-7.513 104.85 104.85 0 0 1 1.999-4.51c.423-1.064.938-2.09 1.538-3.066Zm20.489-72.722a10.326 10.326 0 0 0-1.421-4.61 1.73 1.73 0 0 0-1.797-.767 1.735 1.735 0 0 0-.636.263l-3.528 2.372c-.087.082-.188.15-.298.198a1.108 1.108 0 0 1-1.203-.162l-1.945-1.66a1.112 1.112 0 0 1-.317-1.235l2.85-7.775a6.156 6.156 0 0 0-.326-4.97l-1.809-3.481a17.851 17.851 0 0 0-5.717-6.449l-3.455-2.363a1.008 1.008 0 0 1-.326-.351L102.66 1.668A1.126 1.126 0 0 1 103.691 0c.99.074 1.954.35 2.832.812l12.202 6.404a4.332 4.332 0 0 1 2.289 4.22l-.199 2.138a.504.504 0 0 1-.805.36l-3.564-2.551a.616.616 0 0 0-.89.519.616.616 0 0 0 .112.382l4.704 4.41a.97.97 0 0 1 .244.335l4.65 9.75c.144.315.271.622.389.901a9.85 9.85 0 0 1 .47 2.012c.12.712.18 1.433.181 2.155v2.435c0 .713.045 1.29.072 1.687.054.714.38 1.38.913 1.862a2.808 2.808 0 0 0 3.86-.087 2.799 2.799 0 0 0 .827-1.901 1.276 1.276 0 0 1 1.275 1.235c0 2.417-1.23 5.62-2.533 8.118a.372.372 0 0 1-.551.167.366.366 0 0 1-.136-.167Zm-32.592 12.6c-.1.18-.172.37-.28.559.07-.198.164-.385.28-.56Zm13.008.008a1.118 1.118 0 0 1-.688 0c.227.05.461.05.688 0Z" fill="#fff"/><path d="M109.761 57.796c.224.072.464.072.688 0-.227.05-.461.05-.688 0Zm-12.32 0c-.116.174-.21.362-.28.56.108-.19.18-.38.28-.56Z" fill="#fff"/><path d="M124.117 84.483a.814.814 0 0 0-.471-.406 8.627 8.627 0 0 1-1.809-1.127c-.271-.252-.425-.613-.732-.83-.48-.333-1.104-.144-1.583-.45a1.554 1.554 0 0 1-.706-1.065c0-.325.136-.514 1.067-1.804.606-.82.661-.902.706-1.064.181-.532 0-.73 0-1.804 0-1.073.181-1.299 0-1.416-.181-.117-.905.514-2.488 1.416-.904.496-1.809.839-2.713 1.416-.326.217-.851.659-1.032.108a2.467 2.467 0 0 1 .145-1.163 5.84 5.84 0 0 1 1.068-2.138 8.159 8.159 0 0 0 1.121-3.355 44.59 44.59 0 0 0 .905-9.29 47.54 47.54 0 0 1 0-6.015c.093-.952.315-1.886.66-2.778.335-.821.823-1.57 1.14-2.4a9.23 9.23 0 0 0 .624-2.705c.118-1.804-.905-3.4-2.822-6.656-.534-.902-1.022-1.804-1.601-2.706-.905-1.344-1.348-1.804-1.303-2.706a1.724 1.724 0 0 0-.127-1.154 1.644 1.644 0 0 0-.904-.514 19.698 19.698 0 0 1-1.809-.785l-6.332-2.706a3.56 3.56 0 0 1-1.529-1.299l-3.437-5.222a.634.634 0 0 0-1.167.325v.532a1.429 1.429 0 0 1-.597 1.154 1.422 1.422 0 0 1-1.439.1l-1.7-.902a2.085 2.085 0 0 0-1.81 0l-6.286 2.886a2.475 2.475 0 0 1-2.714-.433l-.796-.74a2.437 2.437 0 0 0-1.719-.631l-2.324.045-2.316-.045a2.395 2.395 0 0 0-1.728.65l-.796.73a2.436 2.436 0 0 1-2.714.433L65.853 25.1a2.085 2.085 0 0 0-1.81 0l-1.7.902c-.28.137-.598.178-.904.117a1.394 1.394 0 0 1-1.095-1.308v-.595a.63.63 0 0 0-.86-.575.633.633 0 0 0-.307.25l-3.437 5.222a3.616 3.616 0 0 1-1.529 1.308l-7.86 3.49a2.18 2.18 0 0 0-1.294 1.904c-.045.901-.1 2.182-.136 2.985-.072 2.21-.316 5.574-.76 10.345a43.74 43.74 0 0 1 5.7-3.202 38.733 38.733 0 0 1 9.624-3.193 26.735 26.735 0 0 1 11.036 0c2.37.541 3.736 1.254 4.631 2.49 1.972 2.706.905 6.503.208 8.676-.85 2.823-2.252 4.51-4.251 6.981-.741.84-1.597 1.572-2.542 2.174a3.706 3.706 0 0 1-1.81.65h-.506a6.421 6.421 0 0 1-3.618-1.678 10.228 10.228 0 0 1-.986-1.083 1.63 1.63 0 0 1-.39-.839c-.099-.901.905-1.704 1.258-2.48a.9.9 0 0 0 .145-.667.66.66 0 0 0-.353-.361c-.38-.144-.706.171-1.013.343-1.14.631-2.415.387-3.618.261a19.802 19.802 0 0 0-2.072-.117c-.651 0-1.302.063-1.954.063a9.813 9.813 0 0 0-2.93.478c-.88.258-1.722.628-2.506 1.1a10.524 10.524 0 0 0-2.253 1.804c1.593-.315 2.931-.55 3.917-.712a27.626 27.626 0 0 1 4.089-.487 8.163 8.163 0 0 1 3.392.487 3.138 3.138 0 0 1 1.438 1.028c.163.214.285.455.362.712a2.7 2.7 0 0 1-.506 2.012 5.864 5.864 0 0 1-2.217 1.966c-4.658 2.588-4.305 2.408-4.523 2.543-2.071 1.074-4.251 2.057-6.241 3.265a5.2 5.2 0 0 0-2.09 3.5c-.307 2.038.796 3.67 3.03 6.864a32.929 32.929 0 0 0 4.153 5.023c2.08 2.048 4.251 4.194 7.734 5.412 1.664.577 3.772 1.37 5.644.37a8.13 8.13 0 0 0 2.768-2.706 16.906 16.906 0 0 0 2.063-3.482c.386-1.166.609-2.38.66-3.607.28-2.77.19-2.877.353-3.545a8.81 8.81 0 0 1 2.804-4.23c1.457-1.317 3.148-2.363 4.677-3.608a3.74 3.74 0 0 1 2.135-1.082 3.94 3.94 0 0 1 2.496 1.064c2.614 1.912 3.085 2.57 6.052 5.33.841.776 1.483 1.354 1.43 2.13-.064.901-1.123 1.587-1.43 1.803-1.267.785-2.994.622-4.414.974 0 0-3.564.55-8.051 5.069a.9.9 0 0 0-.299.595c0 .406.425.749 1.529 1.353 1.484.803 2.225 1.209 2.714 1.173.966-.2 1.865-.64 2.614-1.281.48-.325.425-.334.597-.424 1.81-.902 4.84 1.434 7.119 3.193 1.004.775 1.918 1.641 2.85 2.49.135.121.276.236.424.342.295.236.625.425.978.56.253.09.38.098.38.161 0 .064-.507.271-.778.334a4.735 4.735 0 0 1-2.425-.334 27.793 27.793 0 0 0-2.885-.622 24.203 24.203 0 0 0-2.135-.225 19.43 19.43 0 0 0-2.433-.054c-1.357.063-2.045.099-2.615.505-.325.234-.678.442-.995.703-.316.262-.452.406-.696.415-.245.009-.398-.126-.706-.37a13.79 13.79 0 0 0-1.085-.767 2.974 2.974 0 0 0-1.059-.36 12.834 12.834 0 0 0-4.16.685c-.81.256-1.604.558-2.38.902-2.062.902-2.325 1.398-2.325 1.723a.9.9 0 0 0 .163.46c.299.55.796.902 2.714 1.804.778.342 1.167.523 1.628.676.654.211 1.322.374 2 .487 1.22.335 2.499.393 3.744.172.489-.163.624-.226.624-.226.144-.077.296-.138.453-.18.138-.038.281-.056.425-.054a1.791 1.791 0 0 1 .887.234c.284.136.59.221.904.253.782.081 1.57.081 2.352 0a13.16 13.16 0 0 0 5.129-1.597 7.629 7.629 0 0 0 2.09-1.335 2.91 2.91 0 0 0 .235-.27c.043-.114.077-.232.1-.352a6.297 6.297 0 0 1-.38 1.677c-.118.334-.58 1.462-2.588 3.383-.632.607-1.3 1.176-1.999 1.704a26.194 26.194 0 0 1-4.08 2.76c-3.953 1.994-5.427 1.01-7.725 2.841a3.314 3.314 0 0 0-1.366 2.778c.075.712.326 1.395.733 1.984a7.828 7.828 0 0 0 4.333 2.941 29.72 29.72 0 0 0 7.626.857c2.657.143 5.322.037 7.96-.316.769-.117 1.52-.271 2.27-.46a25.114 25.114 0 0 0 12.103-7.603 43.528 43.528 0 0 0 2.714-3.464c.054-.072.208-.261.425-.496a5.38 5.38 0 0 1 1.131-.902c-.488.839-1.176 2.039-1.972 3.5a194.336 194.336 0 0 0-3.075 5.772 70.908 70.908 0 0 0-5.518 14.431 28.615 28.615 0 0 0-.634 5.79v.677c.064.953.185 1.902.362 2.841a46.115 46.115 0 0 1 1.42-8.172c1.014-3.761 2.334-6.53 4.985-12.076 0 0 2.831-5.899 6.06-11.365 1.203-2.038 2.714-4.392 2.832-4.581 0 .081-.245.811 0 1.055.244.243.588 0 .705 0 2.162-.74 3.184-3.12 3.962-5.06a33.83 33.83 0 0 0 2.388-9.515c.109-1.2 0-2.408.091-3.608a.99.99 0 0 0-.009-.298Zm-13.885-35.22h-.507a40.537 40.537 0 0 0-7.544 0c-1.384.18-2.976.505-3.935 1.588-.154.18-.615.685-.47.956.144.27.488.171.633.171 1.694.046 3.375.31 5.002.785.728.196 1.434.465 2.108.803a13.135 13.135 0 0 1 4.577 3.31c.47.532.543.721.479.838l-.054.063h-.072a1.117 1.117 0 0 1-.688 0h-.253l-.407-.072h-.064c-1.23-.198-3.527-.415-7.471-.64h-.163c-.679 0-1.267-.045-1.764-.045-1.013 0-1.402.054-1.737.316l-.09.072c-.132.125-.25.264-.353.414-.1.18-.172.37-.28.56-.905 1.686-3.8 1.804-3.972 1.804a5.51 5.51 0 0 1-3.717-1.281c-1.077-.902-1.348-2.11-1.891-4.429a33 33 0 0 1-.579-6.548 5.604 5.604 0 0 1 .489-2.832c.158-.319.349-.621.57-.901 1.112-1.371 3.265-1.705 4.92-1.804 2.646-.043 5.286.26 7.852.901.624.127 1.248.271 1.882.425l.904.234c.615.162 1.239.334 1.855.514l.642.198c.398.115.796.241 1.194.38l.506.17.181.064.226.081c.652.235 1.285.46 1.918.722l.615.27.787.379.453.252c1.148.65 2.261 1.39 3.337 2.147.227.162.724.523.652.676-.073.154-1.095-.108-1.276-.144a25.174 25.174 0 0 0-4.495-.397ZM81.873 8.911a2.274 2.274 0 0 0-2.275-2.273 2.274 2.274 0 0 0-2.275 2.273v3.21a2.274 2.274 0 0 0 2.275 2.274 2.274 2.274 0 0 0 2.275-2.273V8.91ZM221.413 30.576h-.905a4.015 4.015 0 0 0-3.618 2.345l-9.579 20.744-9.589-20.744a4.008 4.008 0 0 0-3.618-2.345h-.905a3.142 3.142 0 0 0-2.219.92 3.124 3.124 0 0 0-.911 2.218V60.97c0 .867.345 1.699.959 2.312a3.29 3.29 0 0 0 2.316.962h.063a3.3 3.3 0 0 0 3.048-2.018c.166-.398.253-.825.254-1.256V46.413l6.531 14.16a1.682 1.682 0 0 0 1.52.966h5.228a1.67 1.67 0 0 0 1.511-.965l6.504-14.097V60.97c0 .873.348 1.71.967 2.328a3.306 3.306 0 0 0 4.669 0 3.288 3.288 0 0 0 .967-2.328V33.714a3.132 3.132 0 0 0-1.975-2.913 3.154 3.154 0 0 0-1.218-.225Zm43.7 29.456L254.014 32.47a3.076 3.076 0 0 0-2.85-1.93h-2.478a3.085 3.085 0 0 0-2.859 1.93l-11.072 27.562a3.028 3.028 0 0 0 .286 2.873 3.058 3.058 0 0 0 2.564 1.34 3.062 3.062 0 0 0 2.858-1.912l.317-.794a16.315 16.315 0 0 0 9.118 2.705 16.65 16.65 0 0 0 9.163-2.705l.317.793a3.089 3.089 0 0 0 1.666 1.59c.74.295 1.566.295 2.306-.002a3.087 3.087 0 0 0 1.763-3.888Zm-15.215-1.966a10.611 10.611 0 0 1-6.721-2.372l6.721-16.803 1.999 4.943 4.767 11.86a10.719 10.719 0 0 1-6.766 2.372Zm51.642-4.022a3.082 3.082 0 0 0-3.844.523 10.55 10.55 0 0 1-7.816 3.436 10.68 10.68 0 0 1-5.073-1.274 10.644 10.644 0 0 1-3.854-3.527 10.596 10.596 0 0 1-.851-10.078 10.626 10.626 0 0 1 3.207-4.121 10.684 10.684 0 0 1 14.387 1.17 3.047 3.047 0 0 0 2.243.964 3.098 3.098 0 0 0 1.809-.55 3.15 3.15 0 0 0 1.343-2.231 3.13 3.13 0 0 0-.8-2.477 16.775 16.775 0 0 0-5.625-4.006 16.822 16.822 0 0 0-6.768-1.406 16.993 16.993 0 0 0-8.064 2.023 16.934 16.934 0 0 0-6.129 5.603 16.867 16.867 0 0 0 3.711 22.577 16.997 16.997 0 0 0 15.892 2.71 16.956 16.956 0 0 0 6.983-4.502 3.116 3.116 0 0 0 .282-3.871 3.131 3.131 0 0 0-1.015-.945l-.018-.018Zm37.504-23.504a3.332 3.332 0 0 0-2.351.972 3.31 3.31 0 0 0-.969 2.346v21.033h-15.568V33.86c0-.88-.35-1.725-.975-2.347a3.333 3.333 0 0 0-4.707 0 3.311 3.311 0 0 0-.975 2.347v27.057a3.288 3.288 0 0 0 .976 2.35 3.308 3.308 0 0 0 2.362.96h3.319v-2.705h15.568v2.705h3.32a3.324 3.324 0 0 0 2.35-.966c.309-.308.553-.673.719-1.076.167-.402.252-.833.251-1.268V33.86c0-.88-.35-1.722-.972-2.344a3.334 3.334 0 0 0-2.348-.976Zm17.458 6.647v27.057a6.659 6.659 0 0 0 4.707-1.932 6.6 6.6 0 0 0 1.951-4.688V30.566a6.678 6.678 0 0 0-4.699 1.941 6.639 6.639 0 0 0-1.959 4.68Zm45.889-6.611c-.88 0-1.724.348-2.347.97a3.303 3.303 0 0 0-.972 2.34V50.12l-13.678-18.219a3.327 3.327 0 0 0-2.641-1.343h-1.664a3.339 3.339 0 0 0-2.357.965 3.31 3.31 0 0 0-.981 2.345v27.057c0 .88.35 1.725.975 2.347a3.333 3.333 0 0 0 4.707 0 3.31 3.31 0 0 0 .975-2.347V41.66l14.664 19.563v3.021h2.632a4.009 4.009 0 0 0 2.839-1.17 3.97 3.97 0 0 0 1.168-2.834V33.886c0-.878-.35-1.72-.972-2.34a3.326 3.326 0 0 0-2.348-.97Zm72.339 27.048h-12.392v-6.89h9.896v-6.62h-9.896v-6.9h15.567v-2.94c0-.979-.389-1.917-1.083-2.609a3.706 3.706 0 0 0-2.616-1.08h-18.508v33.66H479v-2.373a4.247 4.247 0 0 0-1.254-3.004 4.275 4.275 0 0 0-3.016-1.244Zm-28.774 2.408L434.92 32.47a3.086 3.086 0 0 0-2.858-1.93h-2.479a3.153 3.153 0 0 0-2.886 1.93l-11.072 27.562c-.144.369-.221.76-.226 1.155a3.083 3.083 0 0 0 2.508 3.017 3.102 3.102 0 0 0 2.063-.32 3.086 3.086 0 0 0 1.39-1.552l.317-.793a16.244 16.244 0 0 0 9.1 2.705 16.66 16.66 0 0 0 9.181-2.705l.317.793a3.084 3.084 0 0 0 3.872 1.384 3.08 3.08 0 0 0 1.61-1.497c.334-.68.405-1.458.199-2.187Zm-15.215-1.966a10.549 10.549 0 0 1-6.703-2.372l6.703-16.803 1.999 4.943 4.785 11.86a10.757 10.757 0 0 1-6.748 2.372h-.036Z" fill="#fff"/><path d="M230.314 107.771v-19.5a4.802 4.802 0 0 0-3.39 1.4 4.773 4.773 0 0 0-1.404 3.38v19.5h11.759a4.798 4.798 0 0 0 3.39-1.4 4.772 4.772 0 0 0 1.404-3.38h-11.759Zm34.853-9.695a6.34 6.34 0 0 0-.063-6.097 7.223 7.223 0 0 0-2.71-2.744 7.255 7.255 0 0 0-3.74-.963h-6.422v21.384c.002.769.31 1.505.856 2.048a2.917 2.917 0 0 0 2.057.847h6.811a7.613 7.613 0 0 0 4.782-1.66 7.583 7.583 0 0 0 2.677-4.286 7.559 7.559 0 0 0-.614-5.012 7.596 7.596 0 0 0-3.634-3.517Zm-8.141-5.304h2.063a2.28 2.28 0 0 1 1.605 3.889 2.268 2.268 0 0 1-1.605.657h-2.063v-4.546Zm4.939 15.234h-3.618a1.274 1.274 0 0 1-1.285-1.254v-4.834h4.939c.814 0 1.594.322 2.169.895a3.054 3.054 0 0 1 0 4.324 3.07 3.07 0 0 1-2.169.896l-.036-.027Zm-49.788 1.506-7.978-19.842a2.286 2.286 0 0 0-2.081-1.407h-1.809a2.225 2.225 0 0 0-2.053 1.407l-8.006 19.842a2.22 2.22 0 0 0 1.235 2.891 2.233 2.233 0 0 0 2.899-1.231l.235-.569a11.783 11.783 0 0 0 6.577 1.948 11.947 11.947 0 0 0 6.594-1.948l.235.569a2.232 2.232 0 0 0 4.117.04 2.206 2.206 0 0 0 .017-1.7h.018Zm-10.963-1.398a7.586 7.586 0 0 1-4.858-1.723l4.858-12.13 1.429 3.607 3.446 8.55a7.687 7.687 0 0 1-4.875 1.696Zm100.914 1.398-7.987-19.842a2.248 2.248 0 0 0-2.063-1.407h-1.809a2.247 2.247 0 0 0-2.08 1.407l-7.988 19.842a2.505 2.505 0 0 0-.162.839 2.195 2.195 0 0 0 1.375 2.038c.269.11.558.165.85.162a2.265 2.265 0 0 0 2.08-1.379l.208-.569a11.783 11.783 0 0 0 6.577 1.948 12.04 12.04 0 0 0 6.621-1.948l.235.569a2.218 2.218 0 0 0 2.04 1.383 2.23 2.23 0 0 0 1.575-.635 2.21 2.21 0 0 0 .501-2.408h.027Zm-10.972-1.398a7.62 7.62 0 0 1-4.849-1.723l4.849-12.13 1.456 3.607 3.438 8.55a7.687 7.687 0 0 1-4.921 1.696h.027Zm35.396-.343h-8.955v-4.951h7.146v-4.78h-7.146v-4.98h11.216v-2.119a2.66 2.66 0 0 0-.2-1.02 2.66 2.66 0 0 0-2.468-1.64h-13.343v24.28h16.807v-1.714a3.06 3.06 0 0 0-.891-2.168 3.079 3.079 0 0 0-2.166-.908Z" fill="#999"/></g><defs><clipPath id="a"><path fill="#fff" d="M0 0h479v143H0z"/></clipPath></defs></svg>