<svg width="479" height="143" viewBox="0 0 479 143" fill="none" xmlns="http://www.w3.org/2000/svg">
<g clip-path="url(#clip0_216:1013)">
<path d="M19.4213 80.0456L20.9138 81.7412C20.9993 81.8353 21.0475 81.9571 21.0495 82.084V86.0524C21.0484 86.4033 21.1436 86.7478 21.3249 87.0486C21.5062 87.3493 21.7667 87.5948 22.078 87.7584C22.3894 87.9219 22.7397 87.9974 23.091 87.9765C23.4423 87.9556 23.7812 87.8391 24.0708 87.6398L28.1957 84.8258C28.9542 84.3063 29.7825 83.8964 30.6561 83.6082L32.0311 83.1572C32.1266 83.1277 32.2277 83.1209 32.3263 83.1372C32.4249 83.1536 32.5183 83.1926 32.5992 83.2513C32.68 83.31 32.7459 83.3867 32.7918 83.4752C32.8376 83.5638 32.8621 83.6619 32.8633 83.7615V84.1584C32.8638 84.3034 32.8134 84.4441 32.7209 84.5561C32.6284 84.6681 32.4996 84.7444 32.3567 84.7717C31.8043 84.8866 31.3016 85.1703 30.9184 85.5834L19.9007 97.4798C19.7836 97.6071 19.6322 97.6981 19.4647 97.7421C19.2972 97.7861 19.1205 97.7813 18.9557 97.7281C18.7908 97.6749 18.6448 97.5756 18.5349 97.442C18.425 97.3085 18.3559 97.1463 18.3358 96.9747C17.6602 91.4384 17.718 85.8375 18.5077 80.3162C18.5182 80.215 18.5586 80.1191 18.6237 80.0408C18.6889 79.9625 18.7759 79.9052 18.8737 79.8763C18.9716 79.8473 19.0758 79.8479 19.1733 79.8781C19.2708 79.9082 19.3571 79.9665 19.4213 80.0456Z" fill="white"/>
<path d="M30.0229 37.6734C30.9671 37.6734 31.7325 36.9102 31.7325 35.9688C31.7325 35.0274 30.9671 34.2642 30.0229 34.2642C29.0787 34.2642 28.3132 35.0274 28.3132 35.9688C28.3132 36.9102 29.0787 37.6734 30.0229 37.6734Z" fill="white"/>
<path d="M36.8523 7.70234V13.9256C36.8515 15.6509 36.4392 17.3512 35.6492 18.8862L33.5235 22.999C31.8974 26.1546 31.0508 29.6519 31.054 33.1997V33.3711C30.545 33.1755 29.9902 33.1301 29.4561 33.2405C28.9219 33.3508 28.4309 33.6122 28.0418 33.9934H27.7885C27.3227 33.9903 26.8696 33.8416 26.4931 33.5681C26.1166 33.2946 25.8357 32.9103 25.6899 32.4692L24.6858 29.4567C24.4312 28.7002 24.3368 27.8992 24.4084 27.1043C24.48 26.3095 24.7161 25.5381 25.1019 24.8389L34.8713 7.2153C34.9846 7.0139 35.161 6.85511 35.3735 6.76328C35.586 6.67146 35.8229 6.65167 36.0478 6.70696C36.2726 6.76224 36.4731 6.88954 36.6184 7.06934C36.7638 7.24914 36.8459 7.47151 36.8523 7.70234ZM7.89686 68.8077C7.89521 67.9746 8.10401 67.1546 8.50398 66.4232C8.90395 65.6918 9.48222 65.0726 10.1854 64.6227L10.2578 64.5416L1.96284 53.8989C1.82126 53.7142 1.62424 53.5795 1.40049 53.5142C1.17674 53.449 0.93794 53.4567 0.718885 53.5362C0.499831 53.6157 0.31196 53.7629 0.182638 53.9563C0.0533168 54.1497 -0.0106993 54.3792 -8.51433e-05 54.6114L0.461248 67.2383C0.496918 68.3181 0.710853 69.3847 1.09445 70.3951C1.477 71.4174 2.02388 72.3709 2.71364 73.2181C4.18392 75.0174 5.07325 77.2185 5.26455 79.5315C5.49825 83.5488 6.2835 87.5152 7.59835 91.3197C7.62234 91.4393 7.693 91.5445 7.79479 91.6122C7.89657 91.6798 8.02114 91.7044 8.1411 91.6805C8.26105 91.6565 8.36656 91.5861 8.43442 91.4846C8.50227 91.3831 8.52692 91.2589 8.50292 91.1393C8.19085 85.0342 8.80071 78.917 10.3121 72.9926C9.58709 72.556 8.98516 71.9429 8.56273 71.211C8.14029 70.479 7.91118 69.6521 7.89686 68.8077ZM37.2956 75.9419L37.5669 74.9317C37.6377 74.6734 37.617 74.3987 37.5082 74.1539C37.3994 73.9091 37.2093 73.7092 36.9699 73.5879L32.9898 71.5585C32.9457 71.5367 32.8975 71.5245 32.8483 71.5228C32.7991 71.5211 32.7502 71.5299 32.7047 71.5488C32.6592 71.5676 32.6184 71.5959 32.5848 71.6318C32.5513 71.6677 32.5259 71.7104 32.5104 71.757C32.4902 71.7992 32.4798 71.8455 32.4798 71.8923C32.4798 71.939 32.4902 71.9853 32.5104 72.0275C32.7904 72.5875 32.933 73.2057 32.9265 73.8314V73.9577C32.9164 74.1401 32.9507 74.3222 33.0262 74.4886C33.1018 74.6551 33.2165 74.8009 33.3607 74.9137L35.405 76.5462C35.5571 76.6726 35.7388 76.7586 35.9331 76.7963C36.1275 76.8341 36.3283 76.8222 36.5168 76.762C36.7054 76.7017 36.8756 76.5949 37.0117 76.4516C37.1479 76.3082 37.2455 76.1329 37.2956 75.9419ZM35.5769 80.4696L35.8482 80.0456C36.0072 79.7935 36.0647 79.4908 36.0093 79.1981C35.954 78.9054 35.7898 78.6444 35.5497 78.4673L33.0441 76.6634C32.831 76.5098 32.5721 76.4325 32.3094 76.4439C32.0467 76.4554 31.7956 76.555 31.5967 76.7266C31.3899 76.8999 31.2498 77.1394 31.2003 77.4042C31.1508 77.669 31.195 77.9427 31.3254 78.1787L31.5244 78.5484C31.5875 78.6639 31.6701 78.7676 31.7686 78.8551L33.8039 80.659C33.9273 80.7745 34.0744 80.8621 34.2349 80.9157C34.3954 80.9694 34.5656 80.9879 34.734 80.9699C34.9023 80.9519 35.0648 80.8979 35.2102 80.8115C35.3557 80.7252 35.4808 80.6085 35.5769 80.4696ZM30.3937 79.1798C30.1741 78.975 29.8847 78.861 29.5841 78.861C29.2834 78.861 28.994 78.975 28.7745 79.1798L28.3403 79.5766C28.2242 79.6854 28.1316 79.8168 28.0684 79.9626C28.0051 80.1084 27.9725 80.2656 27.9725 80.4244C27.9725 80.5833 28.0051 80.7405 28.0684 80.8863C28.1316 81.0321 28.2242 81.1635 28.3403 81.2723L29.3624 82.3005C29.5109 82.4464 29.6948 82.5515 29.8962 82.6052C30.0976 82.659 30.3095 82.6596 30.5113 82.6071L31.1716 82.4177C31.3762 82.3653 31.5627 82.2585 31.7112 82.1086C31.8597 81.9588 31.9646 81.7716 32.0147 81.567C32.0649 81.3624 32.0584 81.148 31.9959 80.9468C31.9335 80.7456 31.8174 80.565 31.6601 80.4244L30.3937 79.1798ZM25.518 81.3805H23.7993C23.6433 81.3793 23.4887 81.409 23.3444 81.468C23.2001 81.5269 23.069 81.6139 22.9587 81.7239C22.8484 81.8338 22.7612 81.9646 22.7021 82.1085C22.6429 82.2523 22.6131 82.4065 22.6143 82.562V85.5384C22.616 85.6601 22.6495 85.7793 22.7113 85.8844C22.7731 85.9894 22.8612 86.0766 22.9669 86.1375C23.0727 86.1984 23.1925 86.2309 23.3146 86.2318C23.4367 86.2327 23.557 86.202 23.6636 86.1426L26.8839 84.2937C27.0454 84.2007 27.1823 84.0707 27.2835 83.9144C27.3846 83.7582 27.447 83.5802 27.4656 83.3952C27.4842 83.2102 27.4583 83.0234 27.3902 82.8503C27.3221 82.6772 27.2137 82.5227 27.0739 82.3997L26.2688 81.6781C26.0625 81.4922 25.796 81.3866 25.518 81.3805ZM28.7292 50.6429L27.5804 53.024C26.9192 54.3823 26.57 55.8705 26.5583 57.3803V58.4987C26.5431 60.3603 27.1264 62.1778 28.2227 63.6847L31.9405 68.7896C31.9772 68.8352 32.0235 68.8722 32.0762 68.8979L37.3227 71.3511C37.3762 71.3759 37.4351 71.3866 37.4939 71.3821C37.5527 71.3776 37.6093 71.3581 37.6584 71.3255C37.7075 71.2929 37.7473 71.2483 37.774 71.1959C37.8008 71.1435 37.8136 71.0851 37.8112 71.0264L37.6303 65.3533C37.6226 65.278 37.5944 65.2063 37.5488 65.1459L35.5497 62.7828C35.6849 63.115 35.7526 63.4706 35.7487 63.8291C35.7499 64.1942 35.6787 64.556 35.5391 64.8935C35.3995 65.2311 35.1943 65.5378 34.9354 65.796C34.6764 66.0542 34.3688 66.2588 34.0303 66.3979C33.6917 66.5371 33.3289 66.6082 32.9627 66.607C30.7736 66.607 29.1725 64.0816 30.9183 61.7997L31.0088 61.7095C31.675 61.2114 32.5053 60.9827 33.3335 61.0692C33.4021 61.0755 33.4711 61.0612 33.5314 61.028C33.5917 60.9949 33.6407 60.9444 33.6719 60.8831C33.7031 60.8219 33.7151 60.7527 33.7064 60.6845C33.6977 60.6164 33.6686 60.5524 33.623 60.501L33.3516 60.1763C33.3253 60.1519 33.3065 60.1206 33.2973 60.0861L29.3624 50.661C29.338 50.5981 29.2954 50.5439 29.2402 50.505C29.1849 50.4662 29.1194 50.4444 29.0518 50.4425C28.9843 50.4405 28.9176 50.4585 28.8602 50.4942C28.8028 50.5298 28.7573 50.5816 28.7292 50.6429ZM36.0653 43.3554C35.1071 42.7826 34.1801 42.1594 33.2883 41.4884C33.1773 41.3881 33.045 41.314 32.9013 41.2718C32.7575 41.2295 32.6061 41.2202 32.4583 41.2445C32.3104 41.2688 32.17 41.326 32.0474 41.412C31.9249 41.498 31.8234 41.6104 31.7505 41.7409L31.6058 42.0025C31.0583 42.985 30.7485 44.0814 30.7012 45.2043L30.5565 48.7038C30.5434 48.751 30.5434 48.8009 30.5565 48.8481L32.7727 54.1153C32.799 54.1774 32.8431 54.2303 32.8994 54.2675C32.9557 54.3047 33.0217 54.3246 33.0893 54.3246C33.1568 54.3246 33.2229 54.3047 33.2792 54.2675C33.3355 54.2303 33.3796 54.1774 33.4059 54.1153C33.6168 53.6063 33.9743 53.1711 34.4331 52.8645C34.8919 52.5579 35.4316 52.3937 35.9839 52.3927C36.1881 52.3934 36.3914 52.4176 36.59 52.4648L36.1558 51.8335C36.1284 51.7894 36.11 51.7403 36.1015 51.6892C36.2263 49.4328 36.4648 47.1842 36.8161 44.9518C36.8563 44.642 36.807 44.3273 36.674 44.0445C36.541 43.7618 36.3298 43.5227 36.0653 43.3554ZM34.9527 59.3375L37.377 62.3679C37.4198 62.4232 37.4785 62.464 37.5452 62.4851C37.6119 62.5062 37.6835 62.5064 37.7504 62.4858C37.8173 62.4652 37.8762 62.4248 37.9194 62.3699C37.9626 62.3149 37.988 62.2482 37.9921 62.1785L38.2454 57.6689C38.2487 57.6038 38.2328 57.5391 38.1996 57.4828C38.1665 57.4266 38.1175 57.3813 38.0588 57.3525C38.0001 57.3237 37.9342 57.3127 37.8693 57.3209C37.8044 57.329 37.7433 57.3559 37.6936 57.3983C37.3038 57.6975 36.8416 57.8885 36.3538 57.9519C35.8661 58.0153 35.3702 57.9488 34.9165 57.7591C34.8532 57.7317 34.7832 57.7239 34.7154 57.7367C34.6476 57.7495 34.5852 57.7824 34.5364 57.8311C34.4876 57.8797 34.4546 57.9419 34.4418 58.0095C34.4289 58.0771 34.4367 58.147 34.4642 58.2101L34.9075 59.2743C34.9189 59.2977 34.9342 59.3191 34.9527 59.3375ZM19.982 44.7714C20.0024 44.8257 20.0362 44.8739 20.0804 44.9116C20.1245 44.9493 20.1775 44.9752 20.2345 44.9869C20.2914 44.9987 20.3504 44.9958 20.4059 44.9786C20.4614 44.9614 20.5116 44.9305 20.5519 44.8887C21.077 44.3641 21.7896 44.0689 22.5329 44.0679C23.055 44.0745 23.5652 44.2244 24.0075 44.5013C24.4497 44.7782 24.8068 45.1712 25.0396 45.6373C25.2723 46.1033 25.3718 46.6243 25.3269 47.143C25.282 47.6617 25.0946 48.1581 24.7853 48.5775L24.722 48.6587C24.4012 48.99 24.0086 49.2435 23.5742 49.3999C23.1398 49.5562 22.6753 49.6112 22.2163 49.5606C22.1578 49.5547 22.0987 49.5634 22.0444 49.586C21.9901 49.6087 21.9424 49.6445 21.9055 49.6902C21.8687 49.7359 21.8439 49.7901 21.8334 49.8478C21.8229 49.9055 21.827 49.9649 21.8454 50.0206L24.342 57.1458C24.3727 57.2197 24.4276 57.281 24.4978 57.3196C24.568 57.3582 24.6494 57.3717 24.7284 57.3581C24.8074 57.3444 24.8793 57.3044 24.9324 57.2445C24.9855 57.1846 25.0166 57.1084 25.0205 57.0285C25.0231 55.3866 25.4202 53.7691 26.1783 52.3115L27.5081 49.7771C27.8033 49.2046 27.9649 48.573 27.9805 47.9295C27.9962 47.2859 27.8656 46.6472 27.5985 46.0612L25.6446 41.7951C24.6647 39.6602 24.3708 37.2754 24.8034 34.9675V34.8502C24.8173 34.7909 24.8173 34.7292 24.8034 34.6699L22.6143 28.1309C22.5688 27.9317 22.4567 27.7537 22.2965 27.6263C22.1362 27.4988 21.9373 27.4294 21.7323 27.4294C21.5274 27.4294 21.3285 27.4988 21.1682 27.6263C21.008 27.7537 20.8959 27.9317 20.8504 28.1309L19.1407 32.6405C17.9996 35.6241 17.9483 38.9129 18.996 41.9303L19.982 44.7714Z" fill="white"/>
<path d="M12.3293 63.4687L12.7092 63.7844H12.854C14.071 63.7842 15.2461 64.228 16.1576 65.0321C17.0691 65.8363 17.654 66.9452 17.802 68.1497L17.8653 68.2038L25.2105 71.8656C25.2865 71.9052 25.3749 71.9142 25.4574 71.8907C25.5398 71.8672 25.6101 71.813 25.6537 71.7393V71.6852C25.6971 71.6264 25.7204 71.5553 25.7204 71.4823C25.7204 71.4093 25.6971 71.3382 25.6537 71.2793L16.0019 60.2759C15.96 60.224 15.9032 60.1862 15.8391 60.1676C15.2636 59.9981 14.7586 59.6472 14.3999 59.1676C14.0411 58.6879 13.8479 58.1053 13.849 57.507C13.8514 57.1993 13.9065 56.8943 14.0118 56.605C14.0162 56.5691 14.0162 56.5328 14.0118 56.4968V44.0863C14.01 44.0044 14.0376 43.9245 14.0897 43.8612C14.1419 43.7978 14.215 43.7552 14.296 43.741C14.3769 43.7268 14.4603 43.742 14.531 43.7839C14.6017 43.8257 14.655 43.8914 14.6812 43.9691L14.9254 44.6095C14.9305 44.6484 14.9305 44.6878 14.9254 44.7267V54.6479C14.9254 54.7063 14.9404 54.7638 14.9689 54.8148C14.9974 54.8659 15.0386 54.9088 15.0884 54.9395C15.1383 54.9703 15.1952 54.9878 15.2537 54.9904C15.3123 54.993 15.3705 54.9807 15.423 54.9545C15.7484 54.7875 16.1037 54.6861 16.4685 54.656C16.8333 54.6259 17.2005 54.6677 17.5491 54.7791C17.8977 54.8905 18.2209 55.0693 18.5002 55.3052C18.7795 55.5411 19.0095 55.8295 19.1769 56.1541C19.3444 56.4786 19.4462 56.8329 19.4764 57.1966C19.5066 57.5603 19.4646 57.9264 19.3529 58.274C19.2412 58.6216 19.0619 58.9438 18.8253 59.2223C18.5887 59.5008 18.2993 59.7301 17.9739 59.8971C17.9273 59.921 17.8869 59.9552 17.8556 59.9971C17.8243 60.039 17.8031 60.0875 17.7935 60.1389C17.7839 60.1902 17.7862 60.243 17.8002 60.2934C17.8142 60.3437 17.8396 60.3901 17.8744 60.4292L26.6668 70.3504C26.7306 70.41 26.8146 70.4431 26.902 70.4431C26.9894 70.4431 27.0735 70.41 27.1372 70.3504C27.7611 70.0031 28.4682 69.8321 29.1823 69.856C29.8965 69.8798 30.5905 70.0975 31.1897 70.4856L31.2349 70.3684L28.0418 66.1835C25.8972 63.3665 24.1896 60.244 22.9762 56.9207L16.1104 38.1336C16.1149 38.1098 16.1149 38.0853 16.1104 38.0615L10.8549 30.6026C10.7043 30.3905 10.49 30.2315 10.2429 30.1487C9.9959 30.0658 9.72885 30.0634 9.4803 30.1416C9.23176 30.2199 9.01456 30.3748 8.86004 30.5841C8.70552 30.7934 8.62166 31.0462 8.62055 31.3061V55.7121C8.60728 57.753 9.29701 59.7365 10.5744 61.3311L12.3293 63.4687ZM47.2007 24.5417L50.032 22.9272C50.1656 22.8482 50.2654 22.723 50.3124 22.5755L52.3206 15.802C52.3538 15.6846 52.3506 15.5599 52.3114 15.4443C52.2722 15.3288 52.1988 15.2277 52.1009 15.1545C52.003 15.0813 51.8852 15.0394 51.763 15.0342C51.6407 15.0291 51.5198 15.0609 51.416 15.1256L45.3644 18.9407C43.4995 20.1162 41.9723 21.7539 40.932 23.6939L39.3218 26.7333C38.9376 27.4534 38.7143 28.2479 38.6675 29.0622C38.6206 29.8765 38.7513 30.6913 39.0505 31.4504L41.4024 37.4211C41.4443 37.5279 41.5159 37.6206 41.6088 37.6883C41.7016 37.7561 41.8119 37.796 41.9267 37.8036C42.0415 37.8112 42.156 37.786 42.257 37.7311C42.358 37.6761 42.4412 37.5936 42.4969 37.4933L42.9311 36.7176C43.4035 35.8511 43.6522 34.8809 43.6548 33.8946V32.19C43.6538 32.0852 43.682 31.9822 43.7362 31.8923L45.6629 28.6093C46.0164 27.9937 46.18 27.2878 46.1333 26.58V26.4628C46.1152 26.0754 46.2054 25.6906 46.3939 25.3514C46.5824 25.0121 46.8617 24.7318 47.2007 24.5417ZM25.1562 74.1926C25.1562 74.0663 25.0748 73.9581 24.6677 73.7777L17.8925 70.6931C17.8515 70.6732 17.807 70.6617 17.7616 70.6591C17.7162 70.6566 17.6707 70.663 17.6278 70.6781C17.5848 70.6932 17.5454 70.7167 17.5116 70.7471C17.4778 70.7776 17.4505 70.8144 17.4311 70.8554C17.3218 71.1052 17.1885 71.3438 17.0331 71.568C16.7912 71.9276 16.6751 72.3569 16.7029 72.789C16.7307 73.2212 16.9008 73.6322 17.1869 73.9581L22.4606 79.9558C22.4894 79.9906 22.5253 80.019 22.5658 80.0392C22.6062 80.0594 22.6505 80.0709 22.6957 80.0731L25.6628 80.2805C25.7089 80.2838 25.7553 80.2775 25.7989 80.2619C25.8425 80.2464 25.8824 80.222 25.916 80.1904L28.1956 78.152C28.2416 78.1099 28.2753 78.056 28.293 77.9962C28.3106 77.9364 28.3116 77.873 28.2958 77.8127C28.28 77.7524 28.248 77.6975 28.2032 77.654C28.1584 77.6105 28.1026 77.58 28.0418 77.5658C27.2745 77.3614 26.5877 76.9294 26.0724 76.327C25.557 75.7246 25.2375 74.9802 25.1562 74.1926ZM23.8084 48.2442L23.8988 48.154C24.1428 47.8868 24.3042 47.555 24.3636 47.1985C24.4229 46.8419 24.3778 46.4759 24.2335 46.1444C24.0892 45.8129 23.852 45.53 23.5503 45.3297C23.2486 45.1294 22.8953 45.0202 22.5329 45.0153C22.0531 45.0153 21.5929 45.2054 21.2537 45.5437C20.9144 45.8819 20.7238 46.3408 20.7238 46.8192C20.7234 47.2449 20.874 47.657 21.1489 47.9827C21.471 48.3626 21.9289 48.6025 22.4254 48.6514C22.922 48.7002 23.4181 48.5541 23.8084 48.2442Z" fill="white"/>
<path d="M18.0191 56.2262C17.9937 56.1917 17.9632 56.1613 17.9286 56.136C17.7078 55.9417 17.4446 55.8015 17.1598 55.7266C16.875 55.6517 16.5767 55.6442 16.2885 55.7047C16.0003 55.7651 15.7303 55.8919 15.4999 56.0748C15.2695 56.2577 15.0852 56.4918 14.9616 56.7583C14.8084 57.1387 14.7696 57.5553 14.8499 57.9573C14.9302 58.3593 15.1262 58.7293 15.4139 59.0221C15.4616 59.0715 15.5206 59.1087 15.5858 59.1304C16.0021 59.2947 16.452 59.3566 16.8974 59.3107C17.229 59.2579 17.5403 59.1175 17.7991 58.9042C18.0579 58.6909 18.2547 58.4125 18.3691 58.0977C18.4836 57.783 18.5115 57.4435 18.4499 57.1144C18.3884 56.7853 18.2396 56.4786 18.0191 56.2262ZM37.2775 53.809C36.9249 53.4502 36.4437 53.2458 35.9398 53.2407C35.436 53.2356 34.9508 53.4303 34.5909 53.7819C34.2311 54.1336 34.026 54.6133 34.021 55.1157C34.0159 55.6181 34.2111 56.1019 34.5638 56.4607C34.5832 56.4969 34.6111 56.5278 34.6452 56.5509C35.0051 56.9097 35.4931 57.1112 36.0021 57.1112C36.511 57.1112 36.9991 56.9097 37.3589 56.5509C37.7188 56.192 37.921 55.7054 37.921 55.198C37.921 54.6905 37.7188 54.2039 37.3589 53.8451C37.3341 53.8284 37.3066 53.8161 37.2775 53.809ZM34.2381 62.4494C33.8783 62.0978 33.3931 61.9031 32.8892 61.9082C32.3854 61.9133 31.9042 62.1177 31.5516 62.4765C31.1989 62.8353 31.0036 63.3191 31.0087 63.8215C31.0138 64.3238 31.2188 64.8036 31.5787 65.1552L31.6692 65.2364C32.029 65.588 32.5142 65.7827 33.0181 65.7776C33.5219 65.7726 34.0031 65.5681 34.3557 65.2093C34.7084 64.8505 34.9037 64.3667 34.8986 63.8644C34.8935 63.362 34.6885 62.8822 34.3286 62.5306C34.3025 62.4994 34.272 62.472 34.2381 62.4494ZM30.647 71.7843C30.2474 71.4674 29.7624 71.2759 29.2535 71.2342C28.7446 71.1924 28.2347 71.3023 27.7885 71.5498C27.3646 71.7889 27.0166 72.1421 26.7844 72.569C26.764 72.5961 26.7487 72.6267 26.7392 72.6592C26.5645 73.0094 26.4746 73.3955 26.4769 73.7866C26.4752 74.0939 26.5272 74.3991 26.6307 74.6885C26.8149 75.1788 27.1449 75.6013 27.5765 75.8995C28.0081 76.1977 28.5208 76.3573 29.0459 76.3571C29.6083 76.3591 30.1555 76.1752 30.6018 75.834C30.7981 75.682 30.9717 75.5028 31.1174 75.3018C31.5042 74.7697 31.671 74.1097 31.5835 73.4584C31.4959 72.807 31.1607 72.2142 30.647 71.8024V71.7843ZM15.3777 66.454L15.2873 66.3728C11.7594 63.7843 7.85167 67.6445 10.4478 71.162L10.5292 71.2432C14.0209 73.8137 17.9106 69.9354 15.3777 66.454ZM57.4586 21.1864L48.7385 25.2541C48.4698 25.3812 48.2473 25.5882 48.1015 25.8467C47.9557 26.1051 47.8938 26.4022 47.9244 26.6972C48.032 27.7158 47.7792 28.7399 47.2098 29.5924L46.0519 31.324C46.0052 31.3915 45.9823 31.4726 45.9868 31.5544C45.9913 31.6363 46.023 31.7143 46.0769 31.7763C46.1307 31.8382 46.2037 31.8806 46.2843 31.8967C46.365 31.9128 46.4487 31.9017 46.5223 31.8652L53.7589 28.483C53.8292 28.452 53.8867 28.3979 53.9217 28.3297L57.9018 21.6825C57.9247 21.6185 57.9298 21.5495 57.9167 21.4829C57.9037 21.4162 57.8729 21.3543 57.8276 21.3036C57.7822 21.2529 57.7241 21.2152 57.6592 21.1946C57.5943 21.174 57.525 21.1712 57.4586 21.1864Z" fill="white"/>
<path d="M68.431 6.80053L56.9881 13.583C56.9336 13.6107 56.8892 13.6549 56.8615 13.7093L52.5557 21.3486C52.523 21.4136 52.5112 21.4872 52.5222 21.5591C52.5331 21.6311 52.5662 21.6978 52.6168 21.7503C52.6674 21.8027 52.7331 21.8382 52.8047 21.8519C52.8764 21.8655 52.9506 21.8567 53.017 21.8266L58.7973 18.8051C58.85 18.7768 58.9092 18.7628 58.9691 18.7643C59.0289 18.7659 59.0873 18.783 59.1385 18.814C59.1897 18.845 59.2319 18.8888 59.2609 18.941C59.2899 18.9932 59.3047 19.0521 59.3038 19.1118V19.7792C59.3037 19.8394 59.3195 19.8986 59.3496 19.9509C59.3797 20.0031 59.4231 20.0465 59.4753 20.0766C59.5276 20.1068 59.587 20.1227 59.6474 20.1228C59.7078 20.1228 59.7671 20.107 59.8194 20.0768L66.0339 16.5774C66.2569 16.4501 66.4421 16.2662 66.5708 16.0444C66.6995 15.8227 66.767 15.5709 66.7666 15.3147V13.7273C66.7666 13.6058 66.7347 13.4864 66.674 13.3811C66.6133 13.2757 66.526 13.1881 66.4207 13.127C66.3154 13.0658 66.1959 13.0333 66.074 13.0326C65.9522 13.0319 65.8323 13.0631 65.7263 13.123L60.923 15.8288C60.8707 15.8589 60.8114 15.8747 60.751 15.8747C60.6905 15.8747 60.6312 15.8588 60.5789 15.8286C60.5267 15.7984 60.4833 15.755 60.4532 15.7028C60.423 15.6506 60.4073 15.5914 60.4074 15.5311V13.9528C60.41 13.892 60.4279 13.8328 60.4595 13.7808C60.4911 13.7287 60.5355 13.6855 60.5883 13.6551L67.1646 9.92119C67.3044 9.83147 67.4663 9.7819 67.6325 9.77794C67.7987 9.77397 67.9628 9.81576 68.1068 9.89871C68.2507 9.98166 68.369 10.1026 68.4485 10.2481C68.5281 10.3937 68.5658 10.5583 68.5576 10.7239V15.8378C68.5573 16.1314 68.4825 16.4202 68.3401 16.6772C68.1978 16.9343 67.9926 17.1512 67.7435 17.3079L61.6105 21.1321C61.5604 21.164 61.5192 21.208 61.4908 21.2601C61.4623 21.3121 61.4475 21.3705 61.4477 21.4297V23.2336C61.4482 23.2944 61.4649 23.354 61.4961 23.4062C61.5273 23.4585 61.572 23.5015 61.6254 23.5309C61.6788 23.5602 61.739 23.5749 61.8 23.5734C61.861 23.5719 61.9205 23.5542 61.9723 23.5222L69.3808 18.9404C69.6306 18.7823 69.8362 18.5638 69.9785 18.3051C70.1208 18.0465 70.1953 17.7563 70.1949 17.4613V7.80166C70.1952 7.59598 70.1408 7.3939 70.0372 7.21602C69.9336 7.03814 69.7846 6.89081 69.6053 6.78906C69.426 6.68731 69.2229 6.63476 69.0166 6.63677C68.8103 6.63879 68.6083 6.69529 68.431 6.80053ZM14.7625 91.0943C14.7598 86.7597 15.2515 82.4387 16.2279 78.2148C16.3706 77.6202 16.3678 77.0001 16.2198 76.4068C16.0718 75.8135 15.783 75.2643 15.3776 74.8056L14.5454 73.9037C14.4084 73.7438 14.2353 73.6187 14.0403 73.5387C13.8452 73.4587 13.6339 73.4262 13.4238 73.4437C13.1256 73.4631 12.8421 73.5795 12.6166 73.775C12.3911 73.9705 12.2362 74.2343 12.1754 74.526C9.68524 87.2654 11.2998 100.464 16.7882 112.233C22.2766 124.002 31.3576 133.739 42.732 140.051C34.2034 135.019 27.1379 127.858 22.233 119.272C17.328 110.687 14.7532 100.975 14.7625 91.0943Z" fill="white"/>
<path d="M20.389 106.427C20.4246 106.566 20.5014 106.691 20.6093 106.785C20.7172 106.88 20.8512 106.94 20.9938 106.957C21.1364 106.975 21.2809 106.949 21.4086 106.884C21.5364 106.818 21.6412 106.716 21.7096 106.59C23.0364 104.118 24.5048 101.578 26.1149 98.9683C28.4216 95.2253 30.7554 91.798 33.0349 88.6773C33.1321 88.5438 33.1829 88.3823 33.1797 88.2174V86.639C33.1806 86.5445 33.1529 86.4519 33.1001 86.3734C33.0473 86.2949 32.972 86.2341 32.884 86.199C32.796 86.1639 32.6994 86.1561 32.6069 86.1767C32.5144 86.1973 32.4302 86.2452 32.3655 86.3143C30.276 88.4338 28.1231 90.8239 25.9431 93.3854C24.0887 95.5951 22.3971 97.7687 20.8684 99.8612C20.4117 100.485 20.0898 101.197 19.9232 101.952C19.7566 102.706 19.7489 103.487 19.9005 104.245C20.0452 104.975 20.2171 105.697 20.389 106.427ZM23.5821 115.492C23.6438 115.619 23.7421 115.725 23.8646 115.797C23.987 115.868 24.1281 115.902 24.2698 115.893C24.4115 115.885 24.5474 115.834 24.6601 115.748C24.7728 115.662 24.8573 115.544 24.9028 115.41C26.0878 111.803 27.4899 107.888 29.1543 103.857C30.5654 100.456 32.0218 97.2727 33.4872 94.3144C33.5932 94.0991 33.634 93.8578 33.6048 93.6199C33.5234 92.9795 33.4601 92.3301 33.3968 91.6807C33.3887 91.5977 33.3552 91.5191 33.3008 91.4557C33.2464 91.3923 33.1736 91.3472 33.0926 91.3264C33.0115 91.3057 32.926 91.3105 32.8477 91.34C32.7694 91.3695 32.7021 91.4223 32.655 91.4913C30.6921 94.594 28.7201 97.9762 26.7843 101.629C25.2465 104.539 23.8595 107.365 22.6233 110.107C22.4127 110.573 22.2979 111.077 22.2854 111.588C22.273 112.099 22.3633 112.608 22.5509 113.083C22.8765 113.895 23.2203 114.698 23.5821 115.492ZM28.0417 123.284C28.1203 123.402 28.2329 123.494 28.3645 123.547C28.4962 123.6 28.6409 123.612 28.7797 123.582C28.9185 123.552 29.045 123.48 29.1425 123.377C29.24 123.274 29.304 123.144 29.3262 123.005C29.9775 119.171 30.8097 115.077 31.8952 110.783C32.8812 106.869 33.9757 103.198 35.1064 99.789C35.1946 99.5118 35.1719 99.2112 35.0431 98.9502C34.7803 98.387 34.5596 97.8052 34.3827 97.2095C34.3541 97.1371 34.3043 97.075 34.2398 97.0312C34.1752 96.9874 34.099 96.964 34.0209 96.964C33.9429 96.964 33.8666 96.9874 33.8021 97.0312C33.7376 97.075 33.6877 97.1371 33.6591 97.2095C32.4922 100.06 31.3434 103.099 30.2579 106.319C28.8015 110.612 27.6256 114.707 26.6396 118.549C26.4857 119.159 26.4584 119.793 26.5596 120.413C26.6607 121.034 26.888 121.627 27.2276 122.157C27.4627 122.499 27.7251 122.896 28.0417 123.284ZM33.6862 130.238C33.7845 130.337 33.9096 130.404 34.0461 130.433C34.1826 130.462 34.3245 130.45 34.4543 130.399C34.5842 130.348 34.6963 130.261 34.7768 130.147C34.8573 130.033 34.9027 129.899 34.9074 129.76C35.016 125.701 35.2964 121.318 35.812 116.673C36.3728 111.839 37.0874 107.329 37.992 103.171C38.0183 103.041 38.0076 102.907 37.9613 102.782C37.9149 102.658 37.8347 102.549 37.7297 102.468C37.434 102.233 37.1559 101.976 36.8975 101.701L36.5447 101.331C36.4881 101.273 36.4169 101.23 36.3384 101.208C36.2599 101.185 36.1768 101.184 36.0977 101.204C36.0186 101.225 35.9463 101.265 35.8881 101.322C35.83 101.38 35.7881 101.451 35.7668 101.53C34.8622 105.065 33.9576 108.862 33.2339 112.921C32.3927 117.431 31.8228 121.769 31.4248 125.773C31.3695 126.33 31.431 126.891 31.6055 127.422C31.7799 127.953 32.0634 128.442 32.4379 128.858C32.8178 129.327 33.243 129.787 33.6862 130.238ZM41.1037 105.399C41.1186 105.266 41.1008 105.132 41.0519 105.008C41.0031 104.884 40.9246 104.774 40.8233 104.686L39.6112 103.649C39.5382 103.583 39.4483 103.537 39.3513 103.517C39.2542 103.498 39.1536 103.505 39.0604 103.539C38.9673 103.572 38.885 103.631 38.8227 103.707C38.7603 103.784 38.7202 103.876 38.7066 103.974C38.0825 108.411 37.594 113.273 37.3498 118.513C37.1327 123.149 37.1417 127.532 37.2955 131.555C37.3193 132.243 37.4935 132.917 37.806 133.531C38.1185 134.145 38.5617 134.683 39.1046 135.108C39.2675 135.244 39.4484 135.379 39.6202 135.505C39.7284 135.59 39.8591 135.642 39.9962 135.654C40.1334 135.665 40.271 135.637 40.3922 135.572C40.5133 135.507 40.6127 135.408 40.6781 135.287C40.7434 135.166 40.7719 135.029 40.76 134.892C40.4163 130.554 40.2173 125.873 40.2534 120.831C40.3077 115.284 40.6243 110.116 41.1037 105.399ZM45.5633 125.286C44.7854 119.451 44.3783 114.012 44.2155 109.052L42.7229 106.427C42.6806 106.323 42.6023 106.238 42.5022 106.186C42.402 106.135 42.2867 106.121 42.1772 106.147C42.0677 106.174 41.9713 106.238 41.9054 106.329C41.8396 106.42 41.8087 106.532 41.8184 106.644C41.6374 111.487 41.6555 116.79 41.9902 122.49C42.2797 127.424 42.7772 132.042 43.3923 136.308C43.4823 136.94 43.7156 137.543 44.0746 138.071C44.4335 138.599 44.9087 139.039 45.4638 139.356C46.2236 139.798 47.0106 140.213 47.7976 140.61C47.8499 140.638 47.9092 140.65 47.9682 140.645C48.0272 140.64 48.0835 140.618 48.1303 140.582C48.1772 140.545 48.2125 140.496 48.2321 140.441C48.2517 140.385 48.2547 140.325 48.2408 140.267C47.2187 135.722 46.2779 130.707 45.5633 125.286ZM54.4553 140.105C53.1798 136.497 51.9406 132.529 50.837 128.317C49.652 123.925 48.7203 119.731 47.9876 115.78C47.3453 114.581 46.6217 113.282 45.8709 111.938C45.8379 111.873 45.7831 111.822 45.7161 111.794C45.6491 111.766 45.5743 111.763 45.5049 111.784C45.4355 111.806 45.3761 111.851 45.3371 111.912C45.2981 111.974 45.2821 112.047 45.2919 112.118C45.7804 116.628 46.5041 121.525 47.5443 126.693C48.6389 132.168 49.9415 137.21 51.3164 141.765C51.3646 141.928 51.4489 142.078 51.5632 142.205C51.6775 142.331 51.8188 142.43 51.9767 142.495L53.0803 142.928C53.2625 142.995 53.4587 143.016 53.6509 142.987C53.8431 142.959 54.025 142.883 54.18 142.766C54.3349 142.649 54.458 142.496 54.5377 142.319C54.6174 142.142 54.6513 141.949 54.6362 141.756L54.4553 140.105ZM50.8641 120.254C50.439 120.389 54.5548 135.758 55.0342 135.65C55.3237 135.586 54.5367 129.976 52.5285 124.285C52.1938 123.338 51.0631 120.191 50.8641 120.254ZM29.1724 45.1956C29.2755 43.5693 29.762 41.9902 30.5926 40.5868C30.7172 40.3921 30.8796 40.2243 31.0702 40.0932C31.2608 39.9621 31.4758 39.8703 31.7025 39.8232C31.9293 39.7761 32.1631 39.7748 32.3904 39.8192C32.6177 39.8636 32.8337 39.9528 33.0259 40.0817L36.5537 42.4538C36.6414 42.5361 36.7423 42.6031 36.8522 42.6522C37.0467 42.7453 37.2644 42.7796 37.4782 42.7508C37.692 42.7219 37.8927 42.6312 38.0553 42.4898L40.0002 40.8303C40.1724 40.6806 40.2956 40.4828 40.3536 40.2624C40.4117 40.0421 40.402 39.8094 40.3258 39.5947L37.4674 31.8201C37.1717 31.0147 37.048 30.1568 37.104 29.301C37.1601 28.4452 37.3948 27.6106 37.793 26.8505L39.6021 23.369C40.9511 20.7863 42.9139 18.5722 45.3191 16.9203L48.7745 14.5573C48.9098 14.4677 49.0215 14.3471 49.1002 14.2055L56.5448 1.66876C56.6408 1.49414 56.6887 1.29729 56.6836 1.09823C56.6786 0.899163 56.6207 0.704993 56.5159 0.535468C56.4111 0.365942 56.2632 0.227109 56.0872 0.13309C55.9111 0.0390719 55.7132 -0.00677777 55.5136 0.000205302C54.524 0.0743504 53.5603 0.350652 52.6823 0.811937L40.4796 7.21559C39.7232 7.61576 39.1024 8.22999 38.6951 8.98104C38.2879 9.73209 38.1125 10.5864 38.191 11.4366L38.3991 13.5742C38.4081 13.6618 38.4401 13.7456 38.4917 13.8172C38.5433 13.8888 38.6128 13.9456 38.6933 13.9821C38.7738 14.0186 38.8625 14.0334 38.9505 14.0251C39.0385 14.0169 39.1229 13.9858 39.1951 13.9349L42.7591 11.3825C42.8817 11.3213 43.0212 11.3028 43.1555 11.3297C43.2899 11.3566 43.4114 11.4275 43.5007 11.5311C43.5901 11.6347 43.6422 11.765 43.6488 11.9015C43.6553 12.038 43.616 12.1727 43.5371 12.2844L38.8333 16.6948C38.7286 16.7872 38.6453 16.901 38.589 17.0285L33.9395 26.8415C33.7973 27.1353 33.6705 27.4364 33.5596 27.7434C33.3368 28.3967 33.1793 29.0704 33.0892 29.7547C32.9692 30.467 32.9087 31.188 32.9083 31.9103V34.3455C32.9083 35.058 32.854 35.6352 32.8269 36.0321C32.7732 36.7464 32.4467 37.4129 31.9146 37.8942C31.3824 38.3755 30.6854 38.6348 29.9671 38.6186C29.2489 38.6024 28.5643 38.3119 28.0545 37.8072C27.5448 37.3024 27.2487 36.6218 27.2276 35.9058C26.8955 35.9057 26.5764 36.0347 26.3382 36.2654C26.1001 36.4962 25.9615 36.8104 25.9521 37.1414C25.9521 39.5586 27.1823 42.7604 28.4849 45.2587C28.5184 45.3251 28.5712 45.3799 28.6363 45.4159C28.7015 45.4519 28.776 45.4676 28.8502 45.4608C28.9244 45.4539 28.9949 45.425 29.0523 45.3777C29.1098 45.3304 29.1516 45.2669 29.1724 45.1956ZM92.9088 23.7569L87.1738 26.2191C86.7617 26.3954 86.3055 26.4424 85.8659 26.3538C85.4264 26.2652 85.0244 26.0452 84.7133 25.7231L83.7545 24.7219C83.6531 24.6156 83.531 24.5312 83.3957 24.4738C83.2603 24.4164 83.1146 24.3873 82.9675 24.3882H76.2465C76.0994 24.3873 75.9537 24.4164 75.8184 24.4738C75.683 24.5312 75.5609 24.6156 75.4595 24.7219L74.5007 25.7231C74.1897 26.0452 73.7876 26.2652 73.3481 26.3538C72.9085 26.4424 72.4523 26.3954 72.0402 26.2191L66.3052 23.7569C66.1823 23.7057 66.0759 23.6216 65.9979 23.514C65.9198 23.4063 65.873 23.2793 65.8627 23.1468C65.8524 23.0144 65.879 22.8817 65.9395 22.7634C66.0001 22.645 66.0922 22.5456 66.2057 22.4761L70.421 19.8876C71.1823 19.4196 72.0595 19.1729 72.9539 19.1751H86.2602C87.1545 19.1729 88.0317 19.4196 88.793 19.8876L93.0083 22.4761C93.1218 22.5456 93.214 22.645 93.2745 22.7634C93.335 22.8817 93.3616 23.0144 93.3513 23.1468C93.341 23.2793 93.2942 23.4063 93.2162 23.514C93.1381 23.6216 93.0317 23.7057 92.9088 23.7569ZM87.2823 12.8075V16.5415C87.2799 16.7074 87.2122 16.8656 87.0937 16.9821C86.9752 17.0986 86.8155 17.1638 86.6491 17.1638H72.5649C72.4822 17.165 72.4 17.1498 72.3232 17.1191C72.2465 17.0883 72.1766 17.0427 72.1177 16.9848C72.0588 16.9268 72.012 16.8578 71.98 16.7817C71.9481 16.7056 71.9317 16.624 71.9317 16.5415V12.8075C71.9261 12.437 72.0238 12.0722 72.2138 11.7537C72.4039 11.4352 72.6789 11.1756 73.0081 11.0037L75.2696 9.82215C75.3252 9.79218 75.3878 9.77728 75.451 9.77894C75.5143 9.7806 75.576 9.79877 75.63 9.83162C75.684 9.86447 75.7284 9.91087 75.7588 9.96618C75.7892 10.0215 75.8045 10.0838 75.8033 10.1468V11.617C75.8055 12.8863 76.3131 14.1028 77.2144 14.9992C77.5252 15.318 77.8962 15.5722 78.3061 15.7471C78.716 15.922 79.1566 16.0142 79.6025 16.0184C80.4915 16.0148 81.3432 15.6615 81.9725 15.0353C82.8738 14.1389 83.3813 12.9224 83.3836 11.6531V10.1829C83.3823 10.1199 83.3977 10.0576 83.4281 10.0023C83.4585 9.94694 83.5029 9.90055 83.5569 9.86769C83.6109 9.83484 83.6726 9.81668 83.7358 9.81502C83.7991 9.81336 83.8616 9.82826 83.9173 9.85823L86.1787 11.0397C86.5076 11.2052 86.7845 11.4576 86.9791 11.7693C87.1738 12.0811 87.2787 12.4403 87.2823 12.8075ZM139.784 80.0459L138.291 81.7415C138.206 81.8356 138.158 81.9574 138.156 82.0843V86.0527C138.157 86.4036 138.062 86.7481 137.88 87.0489C137.699 87.3496 137.438 87.5951 137.127 87.7587C136.816 87.9223 136.465 87.9977 136.114 87.9768C135.763 87.9559 135.424 87.8395 135.134 87.6401L131.01 84.8261C130.251 84.3066 129.423 83.8967 128.549 83.6085L127.174 83.1576C127.079 83.1281 126.978 83.1212 126.879 83.1376C126.78 83.1539 126.687 83.1929 126.606 83.2516C126.525 83.3103 126.459 83.387 126.413 83.4756C126.368 83.5641 126.343 83.6622 126.342 83.7619V84.1587C126.343 84.3033 126.394 84.4431 126.486 84.5548C126.578 84.6664 126.706 84.7431 126.848 84.772C127.403 84.8885 127.908 85.1718 128.296 85.5837L139.304 97.4801C139.422 97.6074 139.573 97.6984 139.74 97.7424C139.908 97.7864 140.085 97.7816 140.25 97.7284C140.414 97.6752 140.56 97.5759 140.67 97.4423C140.78 97.3088 140.849 97.1466 140.869 96.975C141.549 91.4389 141.492 85.8375 140.698 80.3165C140.687 80.2153 140.647 80.1195 140.581 80.0411C140.516 79.9628 140.429 79.9056 140.331 79.8766C140.234 79.8476 140.129 79.8482 140.032 79.8784C139.934 79.9085 139.848 79.9668 139.784 80.0459Z" fill="white"/>
<path d="M129.182 37.6734C130.127 37.6734 130.892 36.9102 130.892 35.9688C130.892 35.0274 130.127 34.2642 129.182 34.2642C128.238 34.2642 127.473 35.0274 127.473 35.9688C127.473 36.9102 128.238 37.6734 129.182 37.6734Z" fill="white"/>
<path d="M122.353 7.70234V13.9256C122.353 15.6509 122.766 17.3512 123.556 18.8862L125.682 22.999C127.308 26.1546 128.154 29.6519 128.151 33.1997V33.3711C128.48 33.2434 128.83 33.1792 129.182 33.1817C129.927 33.1798 130.642 33.4716 131.172 33.9934H131.417C131.883 33.9917 132.336 33.8434 132.713 33.5698C133.09 33.2961 133.371 32.911 133.515 32.4692L134.519 29.4567C134.774 28.7002 134.868 27.8992 134.797 27.1043C134.725 26.3095 134.489 25.5381 134.103 24.8389L124.334 7.2153C124.22 7.0139 124.044 6.85511 123.832 6.76328C123.619 6.67146 123.382 6.65167 123.157 6.70696C122.932 6.76224 122.732 6.88954 122.587 7.06934C122.441 7.24914 122.359 7.47151 122.353 7.70234ZM151.308 68.8077C151.31 67.9746 151.101 67.1546 150.701 66.4232C150.301 65.6918 149.723 65.0726 149.02 64.6227L148.947 64.5416L157.251 53.9079C157.393 53.7232 157.59 53.5885 157.814 53.5233C158.037 53.458 158.276 53.4657 158.495 53.5452C158.714 53.6248 158.902 53.7719 159.031 53.9653C159.161 54.1587 159.225 54.3882 159.214 54.6204L158.753 67.2473C158.717 68.3271 158.503 69.3937 158.12 70.4041C157.74 71.416 157.2 72.3601 156.519 73.2C155.046 74.9986 154.153 77.1996 153.959 79.5135C153.729 83.5314 152.944 87.4983 151.625 91.3017C151.601 91.4213 151.53 91.5265 151.428 91.5941C151.327 91.6618 151.202 91.6863 151.082 91.6624C150.962 91.6385 150.857 91.568 150.789 91.4666C150.721 91.3651 150.696 91.2409 150.72 91.1213C151.037 85.016 150.427 78.8982 148.911 72.9746C149.632 72.5393 150.23 71.9286 150.649 71.1997C151.069 70.4709 151.295 69.6478 151.308 68.8077ZM121.909 75.9419L121.638 74.9317C121.568 74.6724 121.59 74.3969 121.701 74.152C121.811 73.907 122.003 73.7077 122.244 73.5879L126.215 71.5585C126.281 71.5241 126.356 71.5116 126.429 71.5229C126.502 71.5343 126.569 71.5689 126.621 71.6216C126.673 71.6743 126.706 71.7423 126.716 71.8154C126.726 71.8886 126.712 71.963 126.677 72.0275C126.397 72.5875 126.254 73.2057 126.26 73.8314V73.9577C126.271 74.1401 126.236 74.3222 126.161 74.4886C126.085 74.6551 125.97 74.8009 125.826 74.9137L123.782 76.5462C123.63 76.6684 123.45 76.7509 123.258 76.7863C123.066 76.8217 122.868 76.8088 122.682 76.7488C122.496 76.6889 122.328 76.5837 122.193 76.4428C122.058 76.3019 121.961 76.1298 121.909 75.9419ZM123.628 80.4696L123.357 80.0456C123.198 79.7935 123.14 79.4908 123.196 79.1981C123.251 78.9054 123.415 78.6444 123.655 78.4673L126.161 76.6634C126.374 76.5098 126.633 76.4325 126.896 76.4439C127.158 76.4554 127.409 76.555 127.608 76.7266C127.815 76.8997 127.956 77.1385 128.007 77.403C128.058 77.6674 128.016 77.9413 127.889 78.1787L127.69 78.5484C127.624 78.6619 127.541 78.7652 127.445 78.8551L125.401 80.659C125.278 80.7745 125.131 80.8621 124.97 80.9157C124.81 80.9694 124.639 80.9879 124.471 80.9699C124.303 80.9519 124.14 80.8979 123.995 80.8115C123.849 80.7252 123.724 80.6085 123.628 80.4696ZM128.811 79.1798C129.031 78.975 129.32 78.861 129.621 78.861C129.922 78.861 130.211 78.975 130.431 79.1798L130.865 79.5766C130.984 79.6823 131.08 79.8112 131.147 79.9553C131.214 80.0995 131.251 80.2558 131.255 80.4147C131.26 80.5736 131.231 80.7316 131.172 80.8791C131.112 81.0266 131.023 81.1604 130.91 81.2723L129.888 82.3005C129.74 82.4472 129.556 82.5527 129.354 82.6065C129.153 82.6603 128.941 82.6605 128.739 82.6071L128.079 82.4177C127.879 82.3649 127.698 82.2604 127.552 82.1148C127.406 81.9692 127.302 81.7877 127.249 81.5888C127.197 81.3899 127.198 81.1806 127.254 80.9825C127.309 80.7843 127.415 80.6042 127.563 80.4605L128.811 79.1798ZM133.687 81.3805H135.406C135.561 81.3805 135.715 81.4111 135.858 81.4706C136.001 81.5301 136.131 81.6173 136.24 81.7271C136.35 81.8369 136.436 81.9672 136.495 82.1105C136.553 82.2538 136.583 82.4073 136.582 82.562V85.5384C136.58 85.6601 136.547 85.7793 136.485 85.8844C136.423 85.9894 136.335 86.0766 136.229 86.1375C136.123 86.1984 136.004 86.2309 135.881 86.2318C135.759 86.2327 135.639 86.202 135.532 86.1426L132.312 84.2937C132.152 84.1993 132.017 84.0687 131.917 83.9126C131.817 83.7564 131.755 83.5789 131.737 83.3946C131.718 83.2102 131.743 83.0241 131.81 82.8513C131.877 82.6785 131.984 82.5238 132.122 82.3997L132.927 81.6781C133.136 81.4902 133.406 81.3844 133.687 81.3805ZM130.476 50.6429L131.625 53.024C132.284 54.3832 132.637 55.8704 132.656 57.3803V58.4987C132.675 60.361 132.092 62.1798 130.991 63.6847L127.274 68.7896C127.238 68.8328 127.195 68.8694 127.147 68.8979L121.891 71.3511C121.838 71.3759 121.779 71.3866 121.72 71.3821C121.661 71.3776 121.605 71.3581 121.556 71.3255C121.507 71.2929 121.467 71.2483 121.44 71.1959C121.413 71.1435 121.401 71.0851 121.403 71.0264L121.593 65.3533C121.594 65.2781 121.619 65.2052 121.665 65.1459L123.664 62.7828C123.533 63.1162 123.466 63.471 123.465 63.8291C123.464 64.1942 123.535 64.556 123.675 64.8935C123.815 65.2311 124.02 65.5378 124.279 65.796C124.538 66.0542 124.845 66.2588 125.184 66.3979C125.522 66.5371 125.885 66.6082 126.251 66.607C128.441 66.607 130.042 64.0816 128.296 61.7997L128.205 61.7095C127.542 61.212 126.715 60.9832 125.89 61.0692C125.82 61.0777 125.75 61.0649 125.688 61.0325C125.626 61.0001 125.576 60.9497 125.543 60.888C125.511 60.8263 125.498 60.7562 125.507 60.687C125.515 60.6179 125.545 60.553 125.591 60.501L125.862 60.1763C125.889 60.1519 125.908 60.1206 125.917 60.0861L129.834 50.661C129.856 50.5954 129.899 50.5383 129.955 50.4972C130.011 50.4562 130.079 50.4332 130.148 50.4312C130.218 50.4293 130.287 50.4485 130.345 50.4863C130.404 50.5241 130.449 50.5787 130.476 50.6429ZM123.14 43.3554C124.098 42.7826 125.025 42.1594 125.917 41.4884C126.029 41.388 126.162 41.3139 126.306 41.2717C126.45 41.2294 126.602 41.2201 126.751 41.2443C126.899 41.2685 127.041 41.3258 127.164 41.4117C127.287 41.4977 127.39 41.6102 127.464 41.7409L127.599 42.0025C128.151 42.9833 128.461 44.0807 128.504 45.2043L128.649 48.6858C128.657 48.7335 128.657 48.7823 128.649 48.8301L126.432 54.1153C126.406 54.1774 126.362 54.2303 126.306 54.2675C126.249 54.3047 126.183 54.3246 126.116 54.3246C126.048 54.3246 125.982 54.3047 125.926 54.2675C125.87 54.2303 125.825 54.1774 125.799 54.1153C125.588 53.6063 125.231 53.1711 124.772 52.8645C124.313 52.5579 123.773 52.3937 123.221 52.3927C123.017 52.3934 122.814 52.4176 122.615 52.4648L123.049 51.8335C123.077 51.7894 123.095 51.7403 123.104 51.6892C122.979 49.4328 122.74 47.1842 122.389 44.9518C122.349 44.642 122.398 44.3273 122.531 44.0445C122.664 43.7618 122.875 43.5227 123.14 43.3554ZM124.252 59.3375L121.828 62.3679C121.785 62.4232 121.727 62.464 121.66 62.4851C121.593 62.5062 121.522 62.5064 121.455 62.4858C121.388 62.4652 121.329 62.4248 121.286 62.3699C121.242 62.3149 121.217 62.2482 121.213 62.1785L120.96 57.6689C120.956 57.6038 120.972 57.5391 121.005 57.4828C121.039 57.4266 121.088 57.3813 121.146 57.3525C121.205 57.3237 121.271 57.3127 121.336 57.3209C121.401 57.329 121.462 57.3559 121.511 57.3983C122.003 57.7722 122.603 57.9749 123.221 57.9756C123.59 57.963 123.953 57.8771 124.288 57.723C124.352 57.6956 124.422 57.6878 124.49 57.7006C124.557 57.7135 124.62 57.7463 124.669 57.795C124.717 57.8436 124.75 57.9058 124.763 57.9734C124.776 58.041 124.768 58.1109 124.741 58.174L124.298 59.2383C124.29 59.2744 124.275 59.3084 124.252 59.3375ZM139.223 44.7714C139.203 44.8257 139.169 44.8739 139.125 44.9116C139.081 44.9493 139.028 44.9752 138.971 44.9869C138.914 44.9987 138.855 44.9958 138.799 44.9786C138.744 44.9614 138.693 44.9305 138.653 44.8887C138.394 44.6281 138.085 44.4214 137.745 44.2806C137.405 44.1397 137.04 44.0674 136.672 44.0679C136.15 44.0745 135.64 44.2244 135.198 44.5013C134.755 44.7782 134.398 45.1712 134.165 45.6373C133.933 46.1033 133.833 46.6243 133.878 47.143C133.923 47.6617 134.11 48.1581 134.42 48.5775L134.483 48.6587C134.804 48.99 135.196 49.2435 135.631 49.3999C136.065 49.5562 136.53 49.6112 136.989 49.5606C137.048 49.5521 137.108 49.5591 137.164 49.5809C137.219 49.6027 137.268 49.6386 137.306 49.6851C137.343 49.7315 137.368 49.7869 137.377 49.8457C137.387 49.9046 137.381 49.9648 137.36 50.0206L134.863 57.1458C134.832 57.2197 134.777 57.281 134.707 57.3196C134.637 57.3582 134.556 57.3717 134.477 57.3581C134.398 57.3444 134.326 57.3044 134.273 57.2445C134.219 57.1846 134.188 57.1084 134.185 57.0285C134.182 55.3866 133.785 53.7691 133.027 52.3115L131.706 49.7771C131.407 49.2061 131.242 48.5746 131.225 47.9306C131.208 47.2866 131.338 46.6472 131.607 46.0612L133.56 41.7951C134.544 39.6613 134.838 37.2753 134.402 34.9675V34.8502C134.384 34.7915 134.384 34.7286 134.402 34.6699L136.645 28.1039C136.691 27.9046 136.803 27.7267 136.963 27.5992C137.123 27.4718 137.322 27.4023 137.527 27.4023C137.732 27.4023 137.931 27.4718 138.091 27.5992C138.251 27.7267 138.363 27.9046 138.409 28.1039L140.119 32.6135C141.248 35.6012 141.286 38.8901 140.227 41.9033L139.223 44.7714Z" fill="white"/>
<path d="M146.885 63.4687L146.505 63.7844H146.36C145.143 63.7842 143.968 64.228 143.057 65.0321C142.145 65.8363 141.56 66.9452 141.412 68.1497L141.349 68.2038L134.004 71.8656C133.928 71.9052 133.839 71.9142 133.757 71.8907C133.674 71.8672 133.604 71.813 133.561 71.7393V71.6852C133.517 71.6264 133.494 71.5553 133.494 71.4823C133.494 71.4093 133.517 71.3382 133.561 71.2793L143.249 60.2308C143.29 60.1789 143.347 60.1411 143.411 60.1226C143.988 59.9533 144.494 59.6028 144.854 59.1233C145.214 58.6438 145.41 58.061 145.41 57.4619C145.405 57.1537 145.347 56.8486 145.239 56.5599C145.234 56.524 145.234 56.4877 145.239 56.4517V44.0863C145.24 44.0044 145.213 43.9245 145.161 43.8612C145.109 43.7978 145.035 43.7552 144.954 43.741C144.873 43.7268 144.79 43.742 144.719 43.7839C144.649 43.8257 144.595 43.8914 144.569 43.9691L144.325 44.6095C144.32 44.6484 144.32 44.6878 144.325 44.7267V54.6479C144.325 54.7063 144.31 54.7638 144.282 54.8148C144.253 54.8659 144.212 54.9088 144.162 54.9395C144.112 54.9703 144.055 54.9878 143.997 54.9904C143.938 54.993 143.88 54.9807 143.827 54.9545C143.17 54.6172 142.405 54.5541 141.701 54.7791C140.997 55.0041 140.412 55.4987 140.073 56.1541C139.735 56.8095 139.672 57.5721 139.898 58.274C140.123 58.976 140.619 59.5598 141.277 59.8971C141.323 59.921 141.364 59.9552 141.395 59.9971C141.426 60.039 141.447 60.0875 141.457 60.1389C141.467 60.1902 141.464 60.243 141.45 60.2934C141.436 60.3437 141.411 60.3901 141.376 60.4292L132.584 70.3504C132.551 70.3868 132.512 70.416 132.467 70.436C132.423 70.4561 132.375 70.4664 132.326 70.4664C132.277 70.4664 132.229 70.4561 132.184 70.436C132.14 70.416 132.1 70.3868 132.068 70.3504C131.444 70.0031 130.737 69.8321 130.023 69.856C129.309 69.8798 128.615 70.0975 128.015 70.4856L127.97 70.3684L131.163 66.1835C133.308 63.3665 135.016 60.244 136.229 56.9207L143.059 38.1336C143.072 38.1084 143.087 38.0842 143.104 38.0615L148.35 30.6026C148.501 30.3905 148.715 30.2315 148.962 30.1487C149.209 30.0658 149.476 30.0634 149.725 30.1416C149.973 30.2199 150.191 30.3748 150.345 30.5841C150.5 30.7934 150.584 31.0462 150.585 31.3061V55.7121C150.598 57.753 149.908 59.7365 148.631 61.3311L146.885 63.4687ZM112.004 24.5417L109.173 22.9272C109.04 22.8482 108.94 22.723 108.893 22.5755L106.885 15.802C106.851 15.6846 106.855 15.5599 106.894 15.4443C106.933 15.3288 107.006 15.2277 107.104 15.1545C107.202 15.0813 107.32 15.0394 107.442 15.0342C107.564 15.0291 107.685 15.0609 107.789 15.1256L113.841 18.9407C115.706 20.1162 117.233 21.7539 118.273 23.6939L119.883 26.7333C120.268 27.4534 120.491 28.2479 120.538 29.0622C120.585 29.8765 120.454 30.6913 120.155 31.4504L117.803 37.4211C117.761 37.5279 117.689 37.6206 117.596 37.6883C117.504 37.7561 117.393 37.796 117.279 37.8036C117.164 37.8112 117.049 37.786 116.948 37.7311C116.847 37.6761 116.764 37.5936 116.708 37.4933L115.623 35.5361C115.576 35.4439 115.551 35.342 115.55 35.2385V32.19C115.551 32.0852 115.523 31.9822 115.469 31.8923L113.542 28.6093C113.179 27.9966 113.006 27.2906 113.045 26.58V26.4628C113.062 26.0786 112.975 25.6968 112.792 25.3584C112.609 25.02 112.336 24.7376 112.004 24.5417ZM134.049 74.1926C134.049 74.0663 134.13 73.9581 134.537 73.7777L141.322 70.6931C141.403 70.6558 141.497 70.652 141.581 70.6823C141.666 70.7127 141.735 70.7748 141.774 70.8554C141.883 71.1052 142.017 71.3438 142.172 71.568C142.414 71.9276 142.53 72.3569 142.502 72.789C142.474 73.2212 142.304 73.6322 142.018 73.9581L136.745 79.9558C136.716 79.9906 136.68 80.019 136.639 80.0392C136.599 80.0594 136.555 80.0709 136.509 80.0731L133.542 80.2805C133.496 80.2838 133.45 80.2775 133.406 80.2619C133.363 80.2464 133.323 80.222 133.289 80.1904L131.01 78.152C130.964 78.1099 130.93 78.056 130.912 77.9962C130.895 77.9364 130.894 77.873 130.909 77.8127C130.925 77.7524 130.957 77.6975 131.002 77.654C131.047 77.6105 131.103 77.58 131.163 77.5658C131.931 77.3614 132.617 76.9294 133.133 76.327C133.648 75.7246 133.968 74.9802 134.049 74.1926ZM135.397 48.2442C135.362 48.2189 135.332 48.1885 135.306 48.154C135.062 47.8868 134.901 47.555 134.842 47.1985C134.782 46.8419 134.827 46.4759 134.972 46.1444C135.116 45.8129 135.353 45.53 135.655 45.3297C135.957 45.1294 136.31 45.0202 136.672 45.0153C137.152 45.0153 137.612 45.2054 137.952 45.5437C138.291 45.8819 138.481 46.3408 138.481 46.8192C138.482 47.2449 138.331 47.657 138.056 47.9827C137.734 48.3626 137.276 48.6025 136.78 48.6514C136.283 48.7002 135.787 48.5541 135.397 48.2442Z" fill="white"/>
<path d="M141.186 56.2263C141.212 56.1919 141.242 56.1615 141.277 56.1361C141.497 55.9418 141.761 55.8016 142.045 55.7268C142.33 55.6519 142.629 55.6444 142.917 55.7048C143.205 55.7653 143.475 55.892 143.705 56.0749C143.936 56.2579 144.12 56.4919 144.244 56.7584C144.397 57.1388 144.436 57.5555 144.355 57.9575C144.275 58.3595 144.079 58.7295 143.791 59.0223C143.744 59.0717 143.685 59.1088 143.619 59.1305C143.206 59.2944 142.759 59.3563 142.317 59.3109C141.985 59.2593 141.672 59.1199 141.412 58.9072C141.152 58.6944 140.954 58.4161 140.839 58.1012C140.723 57.7862 140.695 57.4462 140.756 57.1165C140.817 56.7867 140.965 56.4794 141.186 56.2263ZM121.928 53.8091C122.102 53.6315 122.31 53.4899 122.54 53.3923C122.769 53.2948 123.016 53.2434 123.265 53.2408C123.515 53.2383 123.762 53.2848 123.994 53.3777C124.225 53.4706 124.436 53.608 124.614 53.7821C124.792 53.9562 124.934 54.1636 125.032 54.3924C125.13 54.6213 125.182 54.8671 125.184 55.1158C125.187 55.3646 125.14 55.6114 125.047 55.8422C124.954 56.0729 124.816 56.2831 124.641 56.4608L124.551 56.551C124.191 56.9098 123.703 57.1114 123.194 57.1114C122.685 57.1114 122.197 56.9098 121.837 56.551C121.477 56.1922 121.275 55.7055 121.275 55.1981C121.275 54.6907 121.477 54.204 121.837 53.8452C121.865 53.8275 121.895 53.8152 121.928 53.8091ZM124.967 62.4496C125.327 62.0979 125.812 61.9032 126.316 61.9083C126.565 61.9108 126.812 61.9623 127.041 62.0598C127.271 62.1573 127.479 62.299 127.654 62.4766C127.828 62.6543 127.966 62.8645 128.059 63.0953C128.152 63.3261 128.199 63.5729 128.196 63.8216C128.194 64.0703 128.142 64.3161 128.045 64.545C127.947 64.7738 127.805 64.9812 127.627 65.1553L127.536 65.2365C127.176 65.5882 126.691 65.7828 126.187 65.7778C125.683 65.7727 125.202 65.5683 124.849 65.2095C124.497 64.8507 124.302 64.3669 124.307 63.8645C124.312 63.3621 124.517 62.8824 124.877 62.5308C124.903 62.4995 124.933 62.4722 124.967 62.4496ZM128.558 71.7845C128.853 71.5506 129.195 71.3839 129.561 71.2961C129.928 71.2084 130.309 71.2017 130.678 71.2764C131.047 71.3512 131.395 71.5057 131.697 71.7291C132 71.9524 132.25 72.2392 132.43 72.5692C132.431 72.5992 132.431 72.6293 132.43 72.6593C132.605 73.0095 132.694 73.3957 132.692 73.7868C132.694 74.094 132.642 74.3992 132.538 74.6887C132.354 75.1789 132.024 75.6014 131.592 75.8996C131.161 76.1978 130.648 76.3575 130.123 76.3572C129.561 76.3593 129.014 76.1753 128.567 75.8341C128.371 75.6821 128.197 75.5029 128.052 75.302C127.665 74.7699 127.498 74.1099 127.586 73.4585C127.673 72.8072 128.008 72.2143 128.522 71.8025L128.558 71.7845ZM143.882 66.4541L143.963 66.3729C147.446 63.7844 151.363 67.6807 148.757 71.1622C148.733 71.1914 148.705 71.2186 148.676 71.2433C145.184 73.8138 141.295 69.9355 143.882 66.4541ZM101.747 21.1866L110.467 25.2542C110.735 25.3814 110.958 25.5884 111.104 25.8468C111.25 26.1052 111.311 26.4024 111.281 26.6973C111.173 27.7159 111.426 28.74 111.995 29.5925L113.153 31.3242C113.2 31.3917 113.223 31.4727 113.218 31.5546C113.214 31.6364 113.182 31.7145 113.128 31.7764C113.074 31.8384 113.002 31.8807 112.921 31.8968C112.84 31.9129 112.757 31.9019 112.683 31.8653L105.446 28.4831C105.376 28.4522 105.318 28.398 105.283 28.3298L101.312 21.7187C101.281 21.6539 101.269 21.5815 101.277 21.51C101.286 21.4385 101.314 21.3709 101.36 21.315C101.405 21.2592 101.466 21.2175 101.534 21.1947C101.603 21.172 101.677 21.1691 101.747 21.1866Z" fill="white"/>
<path d="M90.7742 6.80053L102.217 13.583C102.267 13.6134 102.308 13.6571 102.335 13.7093L106.64 21.3486C106.673 21.4136 106.685 21.4872 106.674 21.5591C106.663 21.6311 106.63 21.6978 106.579 21.7503C106.529 21.8027 106.463 21.8382 106.391 21.8519C106.32 21.8655 106.246 21.8567 106.179 21.8266L100.408 18.8051C100.355 18.7768 100.296 18.7628 100.236 18.7643C100.176 18.7659 100.118 18.783 100.067 18.814C100.015 18.845 99.9733 18.8888 99.9443 18.941C99.9153 18.9932 99.9005 19.0521 99.9013 19.1118V19.7792C99.9015 19.8394 99.8857 19.8986 99.8556 19.9509C99.8255 20.0031 99.7821 20.0465 99.7298 20.0766C99.6776 20.1068 99.6182 20.1227 99.5578 20.1228C99.4974 20.1228 99.4381 20.107 99.3857 20.0768L93.1713 16.5774C92.9483 16.4501 92.7631 16.2662 92.6344 16.0444C92.5057 15.8227 92.4381 15.5709 92.4386 15.3147V13.7273C92.4376 13.6045 92.4693 13.4836 92.5305 13.377C92.5916 13.2704 92.6801 13.1819 92.7867 13.1204C92.8934 13.059 93.0145 13.0269 93.1377 13.0273C93.2608 13.0278 93.3817 13.0608 93.4879 13.123L98.2822 15.8288C98.3345 15.8589 98.3938 15.8747 98.4542 15.8747C98.5146 15.8747 98.574 15.8588 98.6263 15.8286C98.6785 15.7984 98.7219 15.755 98.752 15.7028C98.7821 15.6506 98.7979 15.5914 98.7978 15.5311V13.9528C98.7954 13.893 98.7785 13.8347 98.7486 13.7829C98.7186 13.731 98.6765 13.6872 98.6259 13.6551L92.0406 9.92119C91.9008 9.83147 91.7389 9.7819 91.5727 9.77794C91.4064 9.77397 91.2423 9.81576 91.0984 9.89871C90.9544 9.98166 90.8362 10.1026 90.7567 10.2481C90.6771 10.3937 90.6394 10.5583 90.6475 10.7239V15.8378C90.6479 16.1314 90.7227 16.4202 90.865 16.6772C91.0074 16.9343 91.2126 17.1512 91.4617 17.3079L97.5947 21.1321C97.646 21.1627 97.6882 21.2064 97.7168 21.2588C97.7455 21.3111 97.7595 21.3701 97.7575 21.4297V23.2336C97.757 23.2944 97.7403 23.354 97.7091 23.4062C97.6778 23.4585 97.6332 23.5015 97.5798 23.5309C97.5264 23.5602 97.4661 23.5749 97.4052 23.5734C97.3442 23.5719 97.2847 23.5542 97.2328 23.5222L89.8244 18.9404C89.5746 18.7823 89.369 18.5638 89.2267 18.3051C89.0844 18.0465 89.0099 17.7563 89.0103 17.4613V7.80166C89.01 7.59598 89.0644 7.3939 89.168 7.21602C89.2716 7.03814 89.4206 6.89081 89.5999 6.78906C89.7792 6.68731 89.9823 6.63476 90.1886 6.63677C90.3949 6.63879 90.5969 6.69529 90.7742 6.80053ZM144.443 91.0943C144.445 86.7597 143.954 82.4387 142.977 78.2148C142.842 77.6262 142.847 77.0141 142.993 76.428C143.14 75.8419 143.422 75.2984 143.818 74.8417L144.651 73.9397C144.788 73.7799 144.961 73.6548 145.156 73.5748C145.351 73.4948 145.562 73.4622 145.772 73.4797C146.071 73.4992 146.354 73.6156 146.58 73.811C146.805 74.0065 146.96 74.2703 147.021 74.562C149.511 87.3015 147.896 100.5 142.408 112.269C136.92 124.038 127.839 133.775 116.464 140.087C125 135.054 132.07 127.887 136.977 119.294C141.884 110.702 144.457 100.982 144.443 91.0943Z" fill="white"/>
<path d="M138.816 106.427C138.78 106.566 138.704 106.691 138.596 106.785C138.488 106.88 138.354 106.94 138.211 106.957C138.069 106.975 137.924 106.949 137.796 106.884C137.669 106.818 137.564 106.716 137.495 106.59C136.169 104.118 134.703 101.578 133.099 98.9683C130.783 95.2253 128.45 91.798 126.17 88.6773C126.073 88.5438 126.022 88.3823 126.025 88.2174V86.639C126.024 86.5445 126.052 86.4519 126.105 86.3734C126.158 86.2949 126.233 86.2341 126.321 86.199C126.409 86.1639 126.506 86.1561 126.598 86.1767C126.691 86.1973 126.775 86.2452 126.84 86.3143C128.929 88.4338 131.091 90.8239 133.262 93.3854C135.125 95.5951 136.808 97.7687 138.337 99.8612C138.793 100.489 139.113 101.204 139.276 101.962C139.44 102.72 139.443 103.503 139.286 104.263C139.16 104.975 138.988 105.697 138.816 106.427ZM135.623 115.492C135.561 115.619 135.463 115.725 135.341 115.797C135.218 115.868 135.077 115.902 134.935 115.893C134.794 115.885 134.658 115.834 134.545 115.748C134.432 115.662 134.348 115.544 134.302 115.41C133.117 111.803 131.715 107.888 130.051 103.857C128.64 100.456 127.183 97.2727 125.718 94.3144C125.612 94.0991 125.571 93.8578 125.6 93.6199C125.682 92.9795 125.754 92.3301 125.808 91.6807C125.814 91.5952 125.847 91.5136 125.902 91.4477C125.957 91.3818 126.031 91.3349 126.115 91.3139C126.198 91.2929 126.286 91.2987 126.366 91.3306C126.446 91.3624 126.513 91.4187 126.559 91.4913C128.513 94.594 130.485 97.9762 132.421 101.629C133.959 104.539 135.346 107.365 136.582 110.107C136.795 110.573 136.911 111.076 136.924 111.588C136.936 112.099 136.844 112.608 136.654 113.083C136.329 113.895 135.985 114.698 135.623 115.492ZM131.209 123.284C131.13 123.402 131.017 123.494 130.886 123.547C130.754 123.6 130.609 123.612 130.471 123.582C130.332 123.552 130.205 123.48 130.108 123.377C130.01 123.274 129.946 123.144 129.924 123.005C129.273 119.171 128.441 115.077 127.355 110.783C126.424 107.08 125.353 103.412 124.144 99.789C124.056 99.5118 124.078 99.2112 124.207 98.9502C124.47 98.387 124.691 97.8052 124.868 97.2095C124.896 97.1371 124.946 97.075 125.011 97.0312C125.075 96.9874 125.151 96.964 125.229 96.964C125.307 96.964 125.384 96.9874 125.448 97.0312C125.513 97.075 125.563 97.1371 125.591 97.2095C126.758 100.06 127.907 103.099 128.992 106.319C130.449 110.612 131.625 114.707 132.611 118.549C132.765 119.159 132.792 119.793 132.691 120.413C132.59 121.034 132.362 121.627 132.023 122.157C131.742 122.499 131.48 122.896 131.209 123.284ZM125.519 130.238C125.421 130.337 125.295 130.404 125.159 130.433C125.022 130.462 124.881 130.45 124.751 130.399C124.621 130.348 124.509 130.261 124.428 130.147C124.348 130.033 124.302 129.899 124.298 129.76C124.189 125.701 123.909 121.318 123.393 116.673C122.841 111.821 122.109 107.311 121.267 103.144C121.241 103.014 121.252 102.879 121.298 102.755C121.344 102.631 121.425 102.522 121.53 102.441C121.825 102.206 122.103 101.949 122.362 101.674L122.715 101.304C122.771 101.246 122.842 101.203 122.921 101.181C122.999 101.158 123.083 101.157 123.162 101.177C123.241 101.198 123.313 101.238 123.371 101.295C123.429 101.353 123.471 101.424 123.493 101.503C124.397 105.038 125.302 108.835 126.034 112.894C126.867 117.404 127.437 121.742 127.844 125.746C127.899 126.302 127.837 126.864 127.663 127.395C127.488 127.926 127.205 128.415 126.83 128.831C126.387 129.327 125.962 129.787 125.519 130.238ZM118.101 105.399C118.086 105.266 118.104 105.132 118.153 105.008C118.202 104.884 118.28 104.774 118.382 104.686L119.594 103.649C119.667 103.583 119.757 103.537 119.854 103.517C119.951 103.498 120.051 103.505 120.145 103.539C120.238 103.572 120.32 103.631 120.382 103.707C120.445 103.784 120.485 103.876 120.498 103.974C121.123 108.411 121.611 113.273 121.855 118.513C122.072 123.149 122.063 127.532 121.91 131.555C121.886 132.243 121.712 132.918 121.4 133.531C121.087 134.145 120.644 134.684 120.1 135.108C119.929 135.244 119.757 135.379 119.576 135.505C119.468 135.59 119.337 135.642 119.2 135.654C119.063 135.665 118.925 135.637 118.804 135.572C118.683 135.507 118.583 135.408 118.518 135.287C118.453 135.166 118.424 135.029 118.436 134.892C118.78 130.554 118.979 125.873 118.943 120.831C118.897 115.284 118.581 110.116 118.101 105.399ZM113.642 125.286C114.42 119.451 114.827 114.012 114.99 109.052L116.491 106.463C116.52 106.344 116.595 106.24 116.7 106.176C116.806 106.112 116.932 106.092 117.052 106.121C117.172 106.149 117.276 106.224 117.34 106.329C117.405 106.434 117.425 106.56 117.396 106.68C117.577 111.523 117.559 116.826 117.224 122.527C116.934 127.46 116.437 132.078 115.822 136.344C115.732 136.976 115.499 137.579 115.14 138.107C114.781 138.635 114.305 139.075 113.75 139.393C112.99 139.834 112.213 140.249 111.417 140.646C111.364 140.674 111.305 140.686 111.246 140.681C111.187 140.676 111.131 140.654 111.084 140.618C111.037 140.581 111.002 140.533 110.982 140.477C110.962 140.421 110.959 140.361 110.973 140.303C111.986 135.722 112.927 130.707 113.642 125.286ZM104.75 140.105C106.025 136.497 107.265 132.529 108.368 128.317C109.544 123.925 110.476 119.731 111.208 115.78C111.851 114.581 112.574 113.282 113.325 111.938C113.358 111.873 113.413 111.822 113.48 111.794C113.547 111.766 113.622 111.763 113.691 111.784C113.76 111.806 113.82 111.851 113.859 111.912C113.898 111.974 113.914 112.047 113.904 112.118C113.416 116.628 112.692 121.525 111.652 126.693C110.557 132.168 109.255 137.21 107.889 141.765C107.841 141.929 107.755 142.081 107.639 142.208C107.523 142.334 107.38 142.433 107.219 142.495L106.116 142.928C105.933 142.995 105.737 143.016 105.545 142.987C105.353 142.959 105.171 142.883 105.016 142.766C104.861 142.649 104.738 142.496 104.658 142.319C104.579 142.142 104.545 141.949 104.56 141.756C104.632 141.196 104.696 140.646 104.75 140.105ZM109.544 117.918C110.141 118.107 104.162 139.834 103.212 139.564C102.769 139.465 103.375 135.162 103.773 133.007C104.26 130.433 105.009 127.916 106.007 125.494C106.649 123.934 107.255 122.599 108.006 120.984C108.429 119.92 108.944 118.894 109.544 117.918ZM130.033 45.1956C129.93 43.5693 129.443 41.9902 128.612 40.5868C128.488 40.3921 128.325 40.2243 128.135 40.0932C127.944 39.9621 127.729 39.8703 127.503 39.8232C127.276 39.7761 127.042 39.7748 126.815 39.8192C126.587 39.8636 126.371 39.9528 126.179 40.0817L122.651 42.4538C122.564 42.5361 122.463 42.6031 122.353 42.6522C122.158 42.7453 121.941 42.7796 121.727 42.7508C121.513 42.7219 121.312 42.6312 121.15 42.4898L119.205 40.8303C119.032 40.681 118.909 40.4827 118.853 40.2619C118.796 40.041 118.809 39.8082 118.888 39.5947L121.738 31.8201C122.033 31.0147 122.157 30.1568 122.101 29.301C122.045 28.4452 121.81 27.6106 121.412 26.8505L119.603 23.369C118.254 20.7863 116.291 18.5722 113.886 16.9203L110.431 14.5573C110.295 14.4677 110.184 14.3471 110.105 14.2055L102.66 1.66876C102.564 1.49414 102.516 1.29729 102.521 1.09823C102.527 0.899163 102.584 0.704993 102.689 0.535468C102.794 0.365942 102.942 0.227109 103.118 0.13309C103.294 0.0390719 103.492 -0.00677777 103.691 0.000205302C104.681 0.0743504 105.645 0.350652 106.523 0.811937L118.725 7.21559C119.482 7.61576 120.103 8.22999 120.51 8.98104C120.917 9.73209 121.093 10.5864 121.014 11.4366L120.815 13.5742C120.807 13.6633 120.775 13.7488 120.723 13.8217C120.671 13.8946 120.6 13.9524 120.518 13.9891C120.436 14.0258 120.346 14.0401 120.257 14.0306C120.167 14.0211 120.082 13.9881 120.01 13.9349L116.446 11.3825C116.323 11.3213 116.184 11.3028 116.05 11.3297C115.915 11.3566 115.794 11.4275 115.704 11.5311C115.615 11.6347 115.563 11.765 115.556 11.9015C115.55 12.038 115.589 12.1727 115.668 12.2844L120.372 16.6948C120.476 16.7872 120.56 16.901 120.616 17.0285L125.266 26.7783C125.41 27.094 125.537 27.4006 125.655 27.6802C125.882 28.3324 126.039 29.0065 126.125 29.6915C126.245 30.4038 126.305 31.1248 126.306 31.8471V34.2823C126.306 34.9948 126.351 35.5721 126.378 35.9689C126.432 36.6832 126.758 37.3498 127.291 37.8311C127.823 38.3123 128.52 38.5716 129.238 38.5554C129.956 38.5392 130.641 38.2488 131.151 37.744C131.66 37.2393 131.956 36.5587 131.978 35.8427C132.31 35.8425 132.629 35.9715 132.867 36.2023C133.105 36.433 133.244 36.7473 133.253 37.0783C133.253 39.4954 132.023 42.6973 130.72 45.1956C130.692 45.2638 130.645 45.3223 130.584 45.3634C130.522 45.4046 130.45 45.4265 130.376 45.4265C130.303 45.4265 130.23 45.4046 130.169 45.3634C130.108 45.3223 130.06 45.2638 130.033 45.1956ZM97.4408 57.7955C97.3413 57.9759 97.2689 58.1653 97.1604 58.3547C97.2304 58.1574 97.3246 57.9696 97.4408 57.7955ZM110.449 57.8045C110.225 57.8768 109.985 57.8768 109.761 57.8045C109.988 57.8538 110.222 57.8538 110.449 57.8045Z" fill="white"/>
<path d="M109.761 57.7959C109.985 57.8683 110.225 57.8683 110.449 57.7959C110.222 57.8452 109.988 57.8452 109.761 57.7959ZM97.4408 57.7959C97.3246 57.97 97.2304 58.1579 97.1604 58.3551C97.2689 58.1657 97.3413 57.9763 97.4408 57.7959Z" fill="white"/>
<path d="M124.117 84.4834C124.02 84.2914 123.851 84.1454 123.646 84.0775C122.999 83.778 122.391 83.3993 121.837 82.9501C121.566 82.6976 121.412 82.3368 121.105 82.1204C120.625 81.7867 120.001 81.9761 119.522 81.6694C119.335 81.552 119.176 81.3964 119.054 81.2129C118.932 81.0294 118.851 80.8223 118.816 80.6051C118.816 80.2804 118.952 80.091 119.883 78.8013C120.489 77.9805 120.544 77.8994 120.589 77.737C120.77 77.2049 120.589 77.0065 120.589 75.9332C120.589 74.8599 120.77 74.6344 120.589 74.5171C120.408 74.3999 119.684 75.0312 118.101 75.9332C117.197 76.4292 116.292 76.772 115.388 77.3492C115.062 77.5657 114.537 78.0076 114.356 77.4574C114.31 77.0636 114.36 76.6645 114.501 76.2939C114.706 75.5158 115.069 74.7881 115.569 74.1564C116.184 73.133 116.566 71.9878 116.69 70.8012C117.316 67.7446 117.619 64.631 117.595 61.5114C117.468 59.5081 117.468 57.4989 117.595 55.4956C117.688 54.5441 117.91 53.6096 118.255 52.7176C118.59 51.8969 119.078 51.1483 119.395 50.3185C119.738 49.453 119.949 48.5408 120.019 47.6128C120.137 45.8089 119.114 44.2125 117.197 40.9566C116.663 40.0546 116.175 39.1527 115.596 38.2508C114.691 36.9069 114.248 36.4469 114.293 35.545C114.385 35.1571 114.341 34.7494 114.166 34.3906C113.929 34.1261 113.611 33.9457 113.262 33.8765C112.828 33.7141 112.203 33.4616 111.453 33.0918L105.121 30.386C104.497 30.1082 103.966 29.6573 103.592 29.0872L100.155 23.8651C100.082 23.751 99.9737 23.6633 99.847 23.6149C99.7202 23.5666 99.5812 23.5601 99.4505 23.5965C99.3197 23.6329 99.2042 23.7102 99.1208 23.817C99.0375 23.9238 98.9908 24.0545 98.9876 24.1898V24.7219C98.9863 24.9476 98.9315 25.1698 98.8277 25.3704C98.724 25.571 98.5742 25.7444 98.3906 25.8764C98.1816 26.0194 97.938 26.1041 97.6851 26.1215C97.4321 26.139 97.1791 26.0886 96.9523 25.9756L95.2517 25.0737C94.9696 24.9379 94.6604 24.8674 94.3472 24.8674C94.0339 24.8674 93.7247 24.9379 93.4426 25.0737L87.1558 27.9598C86.7113 28.1639 86.2161 28.2316 85.7329 28.1545C85.2498 28.0775 84.8005 27.859 84.4421 27.5269L83.646 26.7873C83.1775 26.3617 82.5608 26.1352 81.9273 26.156L79.6026 26.2011L77.2869 26.156C76.9701 26.1445 76.6541 26.196 76.3575 26.3075C76.0609 26.419 75.7895 26.5882 75.5591 26.8054L74.7631 27.5359C74.4072 27.8724 73.9577 28.0937 73.4734 28.171C72.9891 28.2482 72.4928 28.1778 72.0494 27.9689L65.853 25.1007C65.5709 24.9649 65.2617 24.8944 64.9485 24.8944C64.6352 24.8944 64.326 24.9649 64.0439 25.1007L62.3433 26.0027C62.0629 26.1399 61.745 26.1811 61.4387 26.1199C61.1365 26.054 60.865 25.8897 60.6668 25.6529C60.4686 25.4162 60.3551 25.1203 60.3442 24.8121V24.2169C60.341 24.0816 60.2943 23.9509 60.211 23.844C60.1276 23.7372 60.0121 23.6599 59.8813 23.6235C59.7506 23.5872 59.6116 23.5936 59.4848 23.642C59.3581 23.6904 59.2502 23.7781 59.1773 23.8922L55.7399 29.1143C55.3647 29.6857 54.8346 30.1392 54.2111 30.4221L46.3504 33.9125C45.9779 34.0775 45.6593 34.3432 45.4306 34.6796C45.202 35.016 45.0725 35.4095 45.0568 35.8156C45.0116 36.7175 44.9573 37.9983 44.9212 38.801C44.8488 41.0107 44.6046 44.3749 44.1613 49.146C45.978 47.9383 47.883 46.868 49.8601 45.9442C52.9138 44.463 56.1499 43.3895 59.4848 42.7514C63.1232 41.9839 66.8823 41.9839 70.5206 42.7514C72.8906 43.2925 74.2565 44.0051 75.1521 45.2407C77.1241 47.9465 76.0566 51.7436 75.3601 53.9172C74.5098 56.7402 73.1077 58.4268 71.1086 60.8981C70.368 61.7382 69.5123 62.4699 68.5668 63.0717C68.0317 63.4434 67.4075 63.6674 66.7576 63.7211H66.251C64.8967 63.5598 63.6292 62.9721 62.6327 62.0435C62.2786 61.7067 61.9491 61.345 61.6468 60.9612C61.4388 60.7248 61.3037 60.4336 61.2578 60.1224C61.1583 59.2205 62.1624 58.4178 62.5152 57.6422C62.6493 57.4472 62.7012 57.2075 62.6599 56.9747C62.5949 56.8126 62.468 56.6828 62.3071 56.614C61.9272 56.4697 61.6015 56.7853 61.294 56.9567C60.1542 57.588 58.8788 57.3445 57.6757 57.2182C56.9877 57.143 56.2963 57.1038 55.6042 57.101C54.9529 57.101 54.3016 57.1641 53.6503 57.1641C52.6547 57.1739 51.6664 57.3351 50.7195 57.6422C49.8403 57.9002 48.9982 58.27 48.2138 58.7425C47.3835 59.2377 46.6255 59.8447 45.9614 60.5463C47.5535 60.2307 48.8922 59.9962 49.8782 59.8338C51.227 59.57 52.5937 59.4072 53.9669 59.3468C55.1195 59.2673 56.2758 59.4333 57.3591 59.8338C57.9275 60.0319 58.4268 60.3888 58.7973 60.862C58.9597 61.0761 59.0822 61.3174 59.1592 61.5745C59.2115 61.9265 59.1937 62.2854 59.1068 62.6305C59.0199 62.9756 58.8655 63.3003 58.6526 63.5858C58.0949 64.4196 57.3318 65.0966 56.4364 65.552C51.7778 68.1405 52.1306 67.9602 51.9135 68.0954C49.842 69.1687 47.662 70.1518 45.672 71.3604C45.1052 71.7733 44.628 72.2961 44.2689 72.8975C43.9098 73.4988 43.6763 74.1663 43.5824 74.8599C43.2748 76.8982 44.3784 78.5307 46.6127 81.7235C47.8268 83.5308 49.2176 85.2136 50.7647 86.7472C52.8452 88.7946 55.0162 90.9412 58.4988 92.1588C60.1633 92.736 62.2709 93.5297 64.1434 92.5286C65.2711 91.862 66.2207 90.9338 66.9114 89.8228C67.736 88.7487 68.4284 87.5799 68.9738 86.3414C69.3604 85.1751 69.5826 83.9609 69.6342 82.7337C69.9146 79.9648 69.8241 79.8565 69.9869 79.1891C70.4858 77.5356 71.4609 76.0647 72.7911 74.9591C74.2475 73.6423 75.9391 72.5961 77.4678 71.3514C78.041 70.7668 78.7911 70.3865 79.6026 70.2691C80.5351 70.3173 81.42 70.6945 82.0992 71.3334C84.7134 73.2454 85.1838 73.9038 88.1508 76.6637C88.9921 77.4394 89.6343 78.0166 89.5801 78.7923C89.5167 79.6942 88.4584 80.3797 88.1508 80.5961C86.8844 81.3808 85.1567 81.2184 83.7365 81.5702C83.7365 81.5702 80.1725 82.1204 75.6858 86.639C75.5138 86.7922 75.407 87.0052 75.3873 87.2343C75.3873 87.6401 75.8124 87.9829 76.916 88.5872C78.3995 89.3899 79.1413 89.7957 79.6297 89.7597C80.5957 89.56 81.4951 89.1193 82.2439 88.4789C82.7234 88.1542 82.6691 88.1452 82.841 88.055C84.6501 87.1531 87.6804 89.4891 89.96 91.2478C90.9641 92.0235 91.8777 92.8893 92.8094 93.7371C92.9445 93.8593 93.0865 93.9737 93.2345 94.0799C93.5289 94.316 93.8586 94.5047 94.2115 94.6391C94.4648 94.7293 94.5914 94.7383 94.5914 94.8014C94.5914 94.8645 94.0848 95.072 93.8135 95.1351C92.99 95.2382 92.1538 95.1231 91.3892 94.8014C90.4391 94.543 89.4759 94.3353 88.5036 94.1791C87.599 94.0438 86.9296 93.9897 86.3688 93.9536C85.5597 93.8847 84.7469 93.8667 83.9355 93.8995C82.5786 93.9626 81.8912 93.9987 81.3213 94.4046C80.9956 94.6391 80.6428 94.8465 80.3262 95.1081C80.0096 95.3696 79.874 95.5139 79.6297 95.523C79.3855 95.532 79.2317 95.3967 78.9242 95.1532C78.6166 94.9096 78.309 94.6932 77.8387 94.3865C77.512 94.2005 77.1528 94.078 76.7803 94.0258C75.3648 94.0233 73.9587 94.2549 72.6193 94.7112C71.81 94.9674 71.0158 95.2685 70.2402 95.6131C68.1778 96.5151 67.9155 97.0111 67.9155 97.3358C67.9263 97.5011 67.9827 97.6603 68.0783 97.7958C68.3768 98.346 68.8743 98.6977 70.792 99.5996C71.57 99.9424 71.9589 100.123 72.4203 100.276C73.0736 100.487 73.7418 100.65 74.4194 100.763C75.6392 101.098 76.9188 101.156 78.1643 100.935C78.6528 100.772 78.7885 100.709 78.7885 100.709C78.9319 100.632 79.0836 100.571 79.2408 100.529C79.3793 100.491 79.5224 100.473 79.6659 100.475C79.8249 100.473 79.9834 100.494 80.1363 100.538C80.2816 100.577 80.4214 100.635 80.5524 100.709C80.8369 100.845 81.143 100.93 81.457 100.962C82.2388 101.043 83.027 101.043 83.8089 100.962C85.6106 100.788 87.3569 100.244 88.9378 99.3651C89.7028 99.0369 90.4086 98.586 91.0274 98.0303C91.1113 97.945 91.1898 97.8547 91.2626 97.7597C91.3063 97.6457 91.3396 97.528 91.3621 97.408C91.3128 97.9818 91.1849 98.5463 90.9821 99.0855C90.8646 99.4193 90.4032 100.547 88.3951 102.468C87.7629 103.075 87.0954 103.644 86.396 104.172C85.126 105.218 83.7601 106.142 82.3163 106.932C78.3633 108.926 76.8889 107.942 74.5912 109.773C74.1539 110.09 73.8008 110.509 73.5627 110.993C73.3247 111.478 73.2089 112.012 73.2253 112.551C73.2995 113.263 73.5514 113.946 73.958 114.535C75.0204 115.983 76.5506 117.021 78.291 117.476C80.7848 118.09 83.3482 118.378 85.9165 118.333C88.574 118.476 91.2391 118.37 93.8768 118.017C94.6457 117.9 95.3965 117.746 96.1473 117.557C100.836 116.246 105.041 113.605 108.25 109.954C109.213 108.845 110.119 107.689 110.964 106.49C111.018 106.418 111.172 106.229 111.389 105.994C111.724 105.644 112.104 105.34 112.52 105.092C112.032 105.931 111.344 107.131 110.548 108.592C109.399 110.666 108.232 112.867 107.473 114.364C105.113 118.96 103.263 123.799 101.955 128.795C101.547 130.699 101.335 132.639 101.321 134.585V135.262C101.385 136.215 101.506 137.164 101.683 138.103C101.91 135.342 102.385 132.607 103.103 129.931C104.117 126.17 105.437 123.401 108.088 117.855C108.088 117.855 110.919 111.956 114.148 106.49C115.351 104.452 116.862 102.098 116.98 101.909C116.98 101.99 116.735 102.72 116.98 102.964C117.224 103.207 117.568 102.964 117.685 102.964C119.847 102.224 120.869 99.8432 121.647 97.904C122.901 94.8643 123.706 91.6591 124.035 88.3887C124.144 87.1892 124.035 85.9806 124.126 84.781C124.138 84.682 124.135 84.5816 124.117 84.4834ZM110.232 49.2633H109.725C107.216 49.0288 104.69 49.0288 102.181 49.2633C100.797 49.4437 99.2047 49.7684 98.2459 50.8507C98.0921 51.0311 97.6308 51.5361 97.7755 51.8067C97.9202 52.0773 98.264 51.9781 98.4087 51.9781C100.103 52.0243 101.784 52.288 103.411 52.7627C104.139 52.9589 104.845 53.2278 105.519 53.5655C107.267 54.3241 108.829 55.4537 110.096 56.8755C110.566 57.4077 110.639 57.5971 110.575 57.7143L110.521 57.7774H110.449C110.225 57.8498 109.985 57.8498 109.761 57.7774H109.508L109.101 57.7053H109.037C107.807 57.5069 105.51 57.2904 101.566 57.0649H101.403C100.724 57.0649 100.136 57.0198 99.6389 57.0198C98.6258 57.0198 98.2368 57.0739 97.9022 57.3355L97.8117 57.4077C97.6798 57.5332 97.5616 57.6723 97.4589 57.8225C97.3594 58.0029 97.287 58.1923 97.1785 58.3817C96.2739 60.0683 93.3793 60.1856 93.2074 60.1856C91.8522 60.2302 90.5281 59.7741 89.4896 58.9048C88.4132 58.0029 88.1418 56.7943 87.599 54.4764C87.1886 52.3183 86.9946 50.1248 87.0201 47.9284C86.934 46.9582 87.1023 45.9822 87.5086 45.0964C87.667 44.7771 87.858 44.4748 88.0785 44.1945C89.1911 42.8235 91.344 42.4898 92.9993 42.3906C95.6449 42.3479 98.2846 42.6511 100.851 43.2925C101.475 43.4188 102.099 43.5631 102.733 43.7165L103.637 43.951C104.252 44.1133 104.876 44.2847 105.492 44.465L106.134 44.6635C106.532 44.7777 106.93 44.904 107.328 45.0423L107.834 45.2136L108.015 45.2768L108.241 45.358C108.893 45.5925 109.526 45.8179 110.159 46.0795L110.774 46.3501L111.561 46.7289L112.014 46.9814C113.162 47.6308 114.275 48.3704 115.351 49.128C115.578 49.2903 116.075 49.6511 116.003 49.8044C115.93 49.9578 114.908 49.6962 114.727 49.6601C113.244 49.3936 111.739 49.2607 110.232 49.2633Z" fill="white"/>
<path d="M81.8733 8.91103C81.8733 7.65577 80.8547 6.63818 79.5983 6.63818C78.3418 6.63818 77.3232 7.65577 77.3232 8.91103V12.1219C77.3232 13.3771 78.3418 14.3947 79.5983 14.3947C80.8547 14.3947 81.8733 13.3771 81.8733 12.1219V8.91103Z" fill="white"/>
<path d="M221.413 30.5756H220.508C219.744 30.5826 218.997 30.807 218.356 31.2223C217.716 31.6377 217.207 32.2269 216.89 32.9206L207.311 53.6648L197.722 32.9206C197.405 32.2269 196.897 31.6377 196.256 31.2223C195.615 30.807 194.868 30.5826 194.104 30.5756H193.199C192.787 30.5756 192.378 30.6569 191.997 30.8148C191.616 30.9728 191.271 31.2042 190.98 31.4959C190.689 31.7876 190.459 32.1338 190.302 32.5145C190.146 32.8952 190.067 33.3029 190.069 33.7143V60.9704C190.069 61.8371 190.414 62.6685 191.028 63.2823C191.642 63.896 192.475 64.242 193.344 64.2444H193.407C193.84 64.2456 194.268 64.1618 194.668 63.9979C195.068 63.834 195.432 63.5932 195.738 63.2892C196.045 62.9852 196.288 62.6239 196.455 62.2261C196.621 61.8282 196.708 61.4015 196.709 60.9704V46.4133L203.24 60.5735C203.376 60.8615 203.59 61.1051 203.859 61.276C204.128 61.4469 204.441 61.5379 204.76 61.5386H209.988C210.306 61.5384 210.617 61.4474 210.885 61.2764C211.153 61.1054 211.366 60.8615 211.499 60.5735L218.003 46.4765V60.9704C218.003 61.8435 218.351 62.6808 218.97 63.2982C219.589 63.9156 220.429 64.2624 221.304 64.2624C222.18 64.2624 223.02 63.9156 223.639 63.2982C224.258 62.6808 224.606 61.8435 224.606 60.9704V33.7143C224.606 33.2983 224.523 32.8864 224.362 32.5026C224.201 32.1188 223.965 31.7708 223.668 31.4788C223.371 31.1867 223.019 30.9565 222.631 30.8014C222.244 30.6464 221.83 30.5696 221.413 30.5756ZM265.113 60.0324L254.014 32.4696C253.786 31.9011 253.393 31.4134 252.886 31.0695C252.378 30.7255 251.778 30.5409 251.164 30.5395H248.686C248.071 30.5403 247.47 30.7245 246.96 31.0685C246.451 31.4124 246.057 31.9004 245.827 32.4696L234.755 60.0324C234.56 60.4972 234.484 61.0031 234.534 61.5045C234.584 62.0059 234.758 62.4871 235.041 62.9048C235.323 63.3225 235.705 63.6636 236.153 63.8974C236.601 64.1313 237.1 64.2505 237.605 64.2444C238.219 64.2474 238.819 64.0668 239.329 63.7259C239.838 63.3851 240.233 62.8996 240.463 62.3323L240.78 61.5386C243.481 63.3255 246.656 64.2676 249.898 64.2444C253.152 64.2566 256.339 63.3157 259.061 61.5386L259.378 62.3323C259.707 63.0563 260.304 63.6257 261.044 63.9216C261.784 64.2174 262.61 64.217 263.35 63.9204C264.09 63.6237 264.686 63.0537 265.014 62.3294C265.343 61.605 265.378 60.7821 265.113 60.0324ZM249.898 58.0662C247.45 58.0736 245.075 57.2354 243.177 55.6941L249.898 38.8913L251.897 43.8338L256.664 55.6941C254.75 57.2373 252.36 58.0751 249.898 58.0662ZM301.54 54.0436C300.937 53.6772 300.225 53.5292 299.525 53.6244C298.825 53.7197 298.179 54.0525 297.696 54.5667C296.705 55.6513 295.499 56.5172 294.153 57.109C292.807 57.7008 291.351 58.0054 289.88 58.0031C288.109 58.0055 286.366 57.5677 284.807 56.7294C283.248 55.8911 281.924 54.6786 280.953 53.2016C279.982 51.7247 279.396 50.0298 279.247 48.2702C279.099 46.5106 279.392 44.7418 280.102 43.1237C280.811 41.5057 281.913 40.0894 283.309 39.0029C284.705 37.9164 286.351 37.194 288.098 36.901C289.844 36.608 291.636 36.7537 293.312 37.3248C294.988 37.8959 296.495 38.8745 297.696 40.172C297.983 40.4784 298.33 40.7224 298.716 40.8884C299.102 41.0545 299.519 41.1392 299.939 41.1371C300.585 41.1465 301.218 40.9541 301.748 40.5869C302.119 40.332 302.43 40.001 302.662 39.6162C302.894 39.2314 303.04 38.8016 303.091 38.3557C303.143 37.9098 303.098 37.4582 302.96 37.031C302.822 36.6038 302.594 36.211 302.291 35.8789C300.715 34.1686 298.8 32.8043 296.666 31.8726C294.532 30.9409 292.228 30.4623 289.898 30.4673C287.084 30.4636 284.312 31.1588 281.834 32.4902C279.356 33.8216 277.25 35.7473 275.705 38.0934C274.16 40.4395 273.226 43.1322 272.986 45.9286C272.746 48.7249 273.208 51.5368 274.331 54.1105C275.453 56.6841 277.201 58.9385 279.416 60.6703C281.631 62.402 284.244 63.5565 287.019 64.0296C289.793 64.5026 292.642 64.2794 295.308 63.38C297.975 62.4806 300.374 60.9334 302.291 58.8779C302.607 58.5334 302.842 58.1226 302.979 57.6757C303.115 57.2287 303.15 56.757 303.079 56.2952C303.009 55.8333 302.836 55.393 302.573 55.0065C302.31 54.62 301.963 54.2972 301.558 54.0617L301.54 54.0436ZM339.044 30.5395C338.607 30.5395 338.175 30.6254 337.771 30.7923C337.368 30.9592 337.002 31.2038 336.693 31.5122C336.385 31.8205 336.141 32.1864 335.974 32.5891C335.808 32.9917 335.723 33.4231 335.724 33.8586V54.8914H320.156V33.8586C320.156 32.9783 319.806 32.1341 319.181 31.5116C318.557 30.8892 317.71 30.5395 316.828 30.5395C315.945 30.5395 315.098 30.8892 314.474 31.5116C313.849 32.1341 313.499 32.9783 313.499 33.8586V60.9163C313.498 61.3528 313.583 61.7853 313.751 62.1886C313.918 62.5919 314.164 62.9581 314.475 63.2659C314.785 63.5738 315.154 63.8172 315.559 63.982C315.965 64.1469 316.399 64.2299 316.837 64.2263H320.156V61.5206H335.724V64.2263H339.044C339.48 64.2275 339.912 64.1427 340.316 63.9768C340.719 63.8109 341.086 63.5671 341.394 63.2595C341.703 62.9519 341.947 62.5865 342.113 62.1844C342.28 61.7823 342.365 61.3513 342.364 60.9163V33.8586C342.364 32.9798 342.014 32.137 341.392 31.5148C340.77 30.8926 339.925 30.5419 339.044 30.5395ZM356.502 37.1867V64.2444C357.376 64.2467 358.241 64.0773 359.049 63.7456C359.856 63.414 360.59 62.9267 361.209 62.3118C361.827 61.6968 362.318 60.9662 362.653 60.1618C362.988 59.3575 363.16 58.4951 363.16 57.6243V30.5665C361.398 30.5689 359.709 31.2666 358.461 32.5071C357.214 33.7475 356.509 35.43 356.502 37.1867ZM402.391 30.5756C401.511 30.5756 400.667 30.9243 400.044 31.5451C399.421 32.1658 399.072 33.0077 399.072 33.8856V50.1202L385.394 31.9014C385.088 31.4891 384.69 31.1532 384.232 30.92C383.774 30.6868 383.268 30.5628 382.753 30.5575H381.089C380.652 30.5563 380.218 30.641 379.814 30.8067C379.41 30.9724 379.042 31.2159 378.732 31.5233C378.422 31.8306 378.176 32.1959 378.008 32.5981C377.839 33.0003 377.752 33.4317 377.751 33.8676V60.9253C377.751 61.8056 378.101 62.6498 378.726 63.2722C379.35 63.8947 380.197 64.2444 381.08 64.2444C381.962 64.2444 382.809 63.8947 383.433 63.2722C384.058 62.6498 384.408 61.8056 384.408 60.9253V41.6602L399.072 61.2229V64.2444H401.704C402.231 64.2456 402.754 64.1427 403.241 63.9418C403.728 63.7409 404.171 63.4458 404.543 63.0736C404.916 62.7014 405.211 62.2594 405.411 61.773C405.612 61.2867 405.714 60.7656 405.711 60.2398V33.8856C405.711 33.0077 405.361 32.1658 404.739 31.5451C404.116 30.9243 403.272 30.5756 402.391 30.5756ZM474.73 57.6243H462.338V50.7336H472.234V44.1134H462.338V37.2137H477.905V34.2734C477.905 33.2951 477.516 32.3568 476.822 31.665C476.128 30.9732 475.187 30.5846 474.206 30.5846H455.698V64.2444H479V61.8723C478.998 60.7448 478.547 59.6643 477.746 58.8679C476.946 58.0715 475.861 57.6243 474.73 57.6243ZM445.956 60.0324L434.92 32.4696C434.69 31.9011 434.295 31.4138 433.786 31.07C433.277 30.7262 432.676 30.5415 432.062 30.5395H429.583C428.965 30.5433 428.362 30.7284 427.849 31.0716C427.336 31.4148 426.935 31.901 426.697 32.4696L415.625 60.0324C415.481 60.4005 415.404 60.7916 415.399 61.1868C415.402 61.9015 415.654 62.5931 416.111 63.1433C416.569 63.6935 417.204 64.0683 417.907 64.2035C418.611 64.3388 419.34 64.2261 419.97 63.8848C420.6 63.5435 421.091 62.9948 421.36 62.3323L421.677 61.5386C424.371 63.3261 427.541 64.2684 430.777 64.2444C434.037 64.2596 437.23 63.3186 439.958 61.5386L440.275 62.3323C440.637 62.9975 441.232 63.5064 441.946 63.7617C442.66 64.017 443.444 64.0007 444.147 63.7161C444.85 63.4314 445.424 62.8983 445.757 62.2187C446.091 61.5391 446.162 60.7607 445.956 60.0324ZM430.741 58.0662C428.298 58.0746 425.929 57.2361 424.038 55.6941L430.741 38.8913L432.74 43.8338L437.525 55.6941C435.614 57.2308 433.232 58.068 430.777 58.0662H430.741Z" fill="white"/>
<path d="M230.314 107.771V88.2717C229.043 88.2717 227.823 88.7753 226.924 89.6718C226.025 90.5683 225.52 91.7841 225.52 93.0519V112.551H237.279C238.551 112.551 239.77 112.048 240.669 111.151C241.568 110.255 242.073 109.039 242.073 107.771H230.314ZM265.167 98.0756C265.67 97.1354 265.927 96.0844 265.916 95.0191C265.905 93.9537 265.626 92.9082 265.104 91.9786C264.467 90.8361 263.53 89.8877 262.394 89.2348C261.258 88.5819 259.965 88.249 258.654 88.2717H252.232V109.656C252.234 110.425 252.542 111.161 253.088 111.704C253.634 112.247 254.374 112.551 255.145 112.551H261.956C263.694 112.559 265.381 111.973 266.738 110.891C268.095 109.809 269.04 108.296 269.415 106.605C269.791 104.913 269.574 103.144 268.801 101.593C268.028 100.041 266.746 98.7998 265.167 98.0756ZM257.026 92.7723H259.089C259.389 92.7735 259.686 92.8337 259.962 92.9496C260.239 93.0655 260.49 93.2347 260.701 93.4476C260.912 93.6604 261.079 93.9127 261.192 94.19C261.305 94.4672 261.361 94.764 261.359 95.0632C261.359 95.3601 261.3 95.654 261.186 95.9282C261.072 96.2023 260.904 96.4513 260.694 96.6608C260.483 96.8703 260.232 97.0362 259.957 97.149C259.681 97.2617 259.386 97.3192 259.089 97.318H257.026V92.7723ZM261.965 108.006H258.347C258.01 108.008 257.686 107.878 257.445 107.643C257.205 107.408 257.067 107.088 257.062 106.752V101.918H262.001C262.815 101.918 263.595 102.24 264.17 102.813C264.745 103.387 265.068 104.164 265.068 104.975C265.068 105.786 264.745 106.564 264.17 107.137C263.595 107.711 262.815 108.033 262.001 108.033L261.965 108.006ZM212.177 109.512L204.199 89.6697C204.028 89.2583 203.739 88.9059 203.37 88.6559C203 88.4058 202.565 88.2692 202.118 88.2627H200.309C199.865 88.2662 199.432 88.4021 199.067 88.6528C198.701 88.9035 198.418 89.2577 198.256 89.6697L190.25 109.512C190.03 110.059 190.036 110.67 190.267 111.212C190.499 111.754 190.937 112.183 191.485 112.403C192.033 112.623 192.647 112.617 193.19 112.386C193.734 112.155 194.164 111.718 194.384 111.172L194.619 110.603C196.569 111.89 198.858 112.568 201.196 112.551C203.538 112.562 205.831 111.884 207.79 110.603L208.025 111.172C208.135 111.442 208.296 111.689 208.501 111.897C208.706 112.105 208.95 112.271 209.219 112.386C209.488 112.5 209.778 112.56 210.07 112.563C210.363 112.566 210.653 112.512 210.924 112.403C211.196 112.294 211.443 112.133 211.652 111.928C211.861 111.724 212.028 111.481 212.142 111.212C212.257 110.944 212.317 110.656 212.32 110.364C212.323 110.072 212.268 109.783 212.159 109.512H212.177ZM201.214 108.114C199.442 108.124 197.723 107.514 196.356 106.391L201.214 94.2605L202.643 97.8682L206.089 106.418C204.709 107.528 202.987 108.127 201.214 108.114ZM302.128 109.512L294.141 89.6697C293.976 89.2577 293.692 88.9039 293.324 88.6533C292.957 88.4028 292.523 88.2668 292.078 88.2627H290.269C289.821 88.2632 289.384 88.3976 289.013 88.6483C288.642 88.8991 288.355 89.2548 288.189 89.6697L280.201 109.512C280.1 109.78 280.044 110.064 280.039 110.351C280.039 110.641 280.096 110.929 280.208 111.197C280.32 111.465 280.485 111.709 280.691 111.913C280.898 112.118 281.144 112.28 281.414 112.389C281.683 112.499 281.972 112.554 282.264 112.551C282.708 112.551 283.143 112.419 283.513 112.174C283.883 111.929 284.172 111.58 284.344 111.172L284.552 110.603C286.502 111.89 288.791 112.568 291.129 112.551C293.479 112.562 295.781 111.884 297.75 110.603L297.985 111.172C298.095 111.441 298.256 111.686 298.46 111.894C298.665 112.101 298.908 112.266 299.177 112.379C299.445 112.493 299.733 112.553 300.025 112.555C300.316 112.557 300.605 112.503 300.875 112.394C301.146 112.285 301.392 112.124 301.6 111.92C301.808 111.716 301.973 111.474 302.087 111.206C302.201 110.938 302.261 110.651 302.263 110.36C302.265 110.07 302.21 109.781 302.101 109.512H302.128ZM291.156 108.114C289.388 108.119 287.674 107.51 286.307 106.391L291.156 94.2605L292.612 97.8682L296.05 106.418C294.658 107.538 292.917 108.138 291.129 108.114H291.156ZM326.552 107.771H317.597V102.82H324.743V98.0395H317.597V93.0609H328.813V90.9414C328.814 90.5917 328.746 90.2452 328.613 89.9218C328.479 89.5985 328.282 89.3047 328.034 89.0574C327.786 88.8101 327.492 88.6141 327.167 88.4808C326.843 88.3476 326.496 88.2795 326.145 88.2807H312.802V112.561H329.609V110.847C329.612 110.035 329.291 109.256 328.718 108.679C328.145 108.102 327.366 107.776 326.552 107.771Z" fill="#999999"/>
</g>
<defs>
<clipPath id="clip0_216:1013">
<rect width="479" height="143" fill="white"/>
</clipPath>
</defs>
</svg>
