<svg width="50" height="51" viewBox="0 0 50 51" fill="none" xmlns="http://www.w3.org/2000/svg">
<path d="M25 0C11.2142 0 0 11.2229 0 25.017C0 38.8112 11.2142 50.0341 25 50.0341C38.7858 50.0341 50 38.8112 50 25.017C50 11.2229 38.7858 0 25 0ZM34.9386 25.8935L20.3553 35.2749C20.1844 35.3858 19.987 35.4408 19.7917 35.4408C19.6208 35.4408 19.4479 35.398 19.2933 35.3136C18.9575 35.1304 18.75 34.7801 18.75 34.3984V15.6357C18.75 15.2539 18.9575 14.9037 19.2933 14.7205C19.6229 14.5393 20.0358 14.5504 20.3553 14.7592L34.9386 24.1406C35.2356 24.3319 35.4167 24.6628 35.4167 25.017C35.4167 25.3713 35.2356 25.7021 34.9386 25.8935Z" fill="#FFB800"/>
</svg>
